<svg width="275" height="85" viewBox="0 0 275 85" fill="none" xmlns="http://www.w3.org/2000/svg">
<path d="M249.76 78.8466H186.086C186.086 81.0357 184.26 82.9816 182.068 82.9816H133.004C130.812 82.9816 128.986 81.1573 128.986 78.9682V78.8466C128.986 78.8466 104.393 79.6979 88.9308 75.8061C80.1649 73.4953 77.1212 72.4008 68.1119 68.8738C34.7528 55.6173 14.1773 50.7525 14.1773 50.7525C14.1773 50.7525 27.8131 48.685 23.5519 38.7122C21.3605 33.3609 7.35938 1.98315 7.35938 1.98315L20.3865 2.95609C25.4999 3.32095 30.1264 5.75335 34.0223 9.15869C74.321 44.1851 70.5468 45.7661 92.4615 45.7661C120.342 45.7661 184.26 46.0094 215.184 46.0094C228.576 46.0094 253.778 44.7932 262.057 56.9551L268.753 59.5091C274.719 61.6982 279.102 77.6304 249.76 78.8466Z" fill="white" stroke="#2C373D" stroke-width="3" stroke-miterlimit="10" stroke-linejoin="round"/>
<path d="M264.005 57.6846H249.882C249.152 57.6846 248.543 56.955 248.543 56.1036V54.0361C248.543 53.6712 248.786 53.3064 249.152 53.3064H258.405" stroke="#2C373D" stroke-width="3" stroke-miterlimit="10" stroke-linejoin="round"/>
<path d="M155.648 70.0899L148.222 68.7521V62.3063L155.648 61.0901" fill="white"/>
<path d="M155.648 70.0899L148.222 68.7521V62.3063L155.648 61.0901" stroke="#2C373D" stroke-width="3" stroke-miterlimit="10" stroke-linejoin="round"/>
<path d="M175.128 73.2521H161.37C157.231 73.2521 153.944 69.9684 153.944 65.8333C153.944 61.6983 157.231 58.4146 161.37 58.4146H175.128C177.807 58.4146 179.876 60.6037 179.876 63.1577V68.5089C179.998 71.063 177.807 73.2521 175.128 73.2521Z" fill="white" stroke="#2C373D" stroke-width="3" stroke-miterlimit="10" stroke-linejoin="round"/>
<path d="M171.962 58.2927H163.318V73.1303H171.962V58.2927Z" stroke="#2C373D" stroke-width="3" stroke-miterlimit="10" stroke-linejoin="round"/>
<path d="M105.123 65.4682L155.77 45.8875" stroke="#2C373D" stroke-width="3" stroke-miterlimit="10" stroke-linejoin="round"/>
<path d="M63.3634 61.4548C64.3374 61.2116 65.3114 61.3332 66.1637 61.5765C72.0076 63.8872 92.9483 73.7384 115.594 73.6168C118.272 73.6168 120.22 76.2924 120.098 78.8464C120.098 78.8464 101.349 79.0896 83.9389 74.3465C72.0076 71.1844 62.5112 66.9277 57.0325 64.617C56.3021 64.2521 56.3021 63.1575 57.1543 62.9143L63.3634 61.4548Z" fill="white" stroke="#2C373D" stroke-width="3" stroke-miterlimit="10"/>
<path d="M130.325 75.8059L131.786 74.7114C133.247 73.6168 134.708 73.1304 136.534 73.1304H174.885" stroke="#2C373D" stroke-width="3" stroke-miterlimit="10" stroke-linecap="round" stroke-linejoin="round"/>
<path d="M120.828 59.5091H130.812C131.298 59.5091 131.785 59.3875 132.272 59.2659L158.692 49.0498H147.734" stroke="#2C373D" stroke-width="3" stroke-miterlimit="10" stroke-linejoin="round"/>
<path d="M137.021 68.0224C161.127 61.3333 184.746 56.5902 210.922 52.9416C216.401 52.2119 215.062 45.4012 210.435 46.0093H210.557C181.703 50.5092 157.475 56.8334 135.682 64.3738" fill="white"/>
<path d="M137.021 68.0224C161.127 61.3333 184.746 56.5902 210.922 52.9416C216.401 52.2119 215.062 45.4012 210.435 46.0093H210.557C181.703 50.5092 157.475 56.8334 135.682 64.3738" stroke="#2C373D" stroke-width="3" stroke-miterlimit="10" stroke-linejoin="round"/>
<path d="M13.5684 50.7525L24.0387 49.5363L61.4155 48.4417C71.6423 48.0769 72.8598 53.1849 62.0242 53.5497C57.6413 53.6713 40.7183 54.4011 25.9867 54.0362C17.8296 53.793 15.1511 52.9416 15.1511 52.9416L13.5684 50.7525Z" stroke="#2C373D" stroke-width="3" stroke-miterlimit="10" stroke-linejoin="round"/>
<path d="M92.0957 65.8332C100.983 64.1306 127.524 62.3063 135.316 64.1306C138.969 64.9819 139.456 68.6305 133.247 69.117C126.916 69.6034 105.853 68.6305 92.0957 65.8332Z" fill="white" stroke="#2C373D" stroke-width="3" stroke-miterlimit="10" stroke-linejoin="round"/>
<path fill-rule="evenodd" clip-rule="evenodd" d="M1.63672 52.4551C6.75016 50.266 24.2819 49.0498 29.2736 50.1444C31.5869 50.6308 32.0739 53.1848 28.0562 53.6713C24.1602 54.1578 10.6461 54.0362 1.63672 52.4551Z" fill="white" stroke="#2C373D" stroke-width="3" stroke-miterlimit="10" stroke-linejoin="round"/>
<path d="M225.289 61.5767H228.942C229.794 61.5767 230.403 62.1848 230.403 63.0361V70.4548C230.403 71.3062 229.794 71.9143 228.942 71.9143H225.289C224.437 71.9143 223.828 71.3062 223.828 70.4548V63.0361C223.828 62.1848 224.437 61.5767 225.289 61.5767Z" stroke="#2C373D" stroke-width="3" stroke-miterlimit="10" stroke-linejoin="round"/>
<path d="M9.79395 7.45605L24.769 40.9014H39.1353C40.3528 40.9014 41.0833 39.5636 40.4746 38.5906L23.308 10.1317C22.4558 8.79386 21.1165 7.94252 19.5338 7.94252L9.79395 7.45605Z" stroke="#2C373D" stroke-width="3" stroke-miterlimit="10" stroke-linejoin="round"/>
<path d="M35.7263 31.6582H33.4131" stroke="#2C373D" stroke-width="3" stroke-miterlimit="10" stroke-linecap="round" stroke-linejoin="round"/>
<path d="M27.448 17.4287H25.1348" stroke="#2C373D" stroke-width="3" stroke-miterlimit="10" stroke-linecap="round" stroke-linejoin="round"/>
</svg>
