<svg width="37" height="20" viewBox="0 0 37 20" fill="none" xmlns="http://www.w3.org/2000/svg">
<path fill-rule="evenodd" clip-rule="evenodd" d="M13.2221 16.0094C13.4158 15.8153 13.6841 15.6953 13.9803 15.6953C14.2765 15.6953 14.5443 15.8153 14.7385 16.0094C14.9322 16.2031 15.0522 16.4714 15.0522 16.7676C15.0522 17.0638 14.9322 17.3316 14.7385 17.5258C14.5443 17.7195 14.2765 17.8395 13.9803 17.8395C13.6841 17.8395 13.4163 17.7195 13.2221 17.5258C13.028 17.3316 12.908 17.0638 12.908 16.7676C12.908 16.4714 13.028 16.2031 13.2221 16.0094ZM31.485 16.0094C31.6787 15.8153 31.947 15.6953 32.2432 15.6953C32.5394 15.6953 32.8077 15.8153 33.0014 16.0094C33.1951 16.2031 33.3155 16.4714 33.3155 16.7676C33.3155 17.0638 33.1955 17.3316 33.0014 17.5258C32.8077 17.7195 32.5394 17.8395 32.2432 17.8395C31.947 17.8395 31.6792 17.7195 31.485 17.5258C31.2913 17.3316 31.1709 17.0638 31.1709 16.7676C31.1709 16.4714 31.2909 16.2031 31.485 16.0094ZM4.31157 18.9661C3.76014 18.4147 3.41409 17.657 3.40015 16.8202H1.93281C1.49688 16.8202 1.10139 16.6427 0.815115 16.3564C0.528838 16.0701 0.351318 15.6746 0.351318 15.2387V1.98676C0.351318 1.55083 0.528838 1.15535 0.815115 0.869074C1.10139 0.582796 1.49688 0.405273 1.93281 0.405273H26.6367C27.0727 0.405273 27.4682 0.582796 27.7544 0.869074C28.0407 1.15535 28.2182 1.55083 28.2182 1.98676V3.4631H32.2432C32.6791 3.4631 33.0746 3.64061 33.3614 3.92689C33.6476 4.21317 33.8251 4.60866 33.8251 5.04459C33.8251 5.25896 33.7825 5.46974 33.6984 5.66614C33.6207 5.84815 33.5065 6.01802 33.3578 6.16543L34.2211 9.6183C34.8305 9.72481 35.368 10.0443 35.7531 10.4965C36.1396 10.9504 36.3733 11.5386 36.3733 12.18V15.2382C36.3733 15.5771 36.2659 15.8921 36.083 16.1501C35.9028 16.4049 35.6484 16.604 35.3527 16.7168L35.3541 16.7676C35.3541 17.6251 35.0053 18.403 34.4417 18.9661C33.8786 19.5293 33.1007 19.878 32.2432 19.878C31.3857 19.878 30.6078 19.5293 30.0447 18.9661C29.4932 18.4147 29.1472 17.657 29.1333 16.8202H17.0907C17.0768 17.657 16.7307 18.4147 16.1793 18.9661C15.6162 19.5293 14.8382 19.878 13.9807 19.878C13.1233 19.878 12.3453 19.5293 11.7822 18.9661C11.2308 18.4147 10.8847 17.657 10.8708 16.8202H9.62097C9.60704 17.657 9.26099 18.4147 8.70955 18.9661C8.14643 19.5293 7.3685 19.878 6.51101 19.878C5.65353 19.878 4.87559 19.5293 4.31247 18.9661H4.31157ZM8.30283 14.2284C8.81022 14.587 9.2093 15.0958 9.42997 15.6953H11.06C11.2802 15.0958 11.6793 14.5875 12.1871 14.2284C12.6986 13.8666 13.3201 13.6567 13.9803 13.6567C14.64 13.6567 15.2616 13.8666 15.773 14.2284C16.2804 14.587 16.6795 15.0958 16.9002 15.6953H27.0938V1.98631C27.0938 1.86048 27.0426 1.74588 26.9599 1.66319C26.8772 1.5805 26.763 1.52926 26.6367 1.52926H1.93281C1.80653 1.52926 1.69237 1.5805 1.60968 1.66319C1.52699 1.74588 1.47576 1.86048 1.47576 1.98631V15.2382C1.47576 15.3641 1.52699 15.4787 1.60968 15.5614C1.69237 15.6441 1.80653 15.6953 1.93281 15.6953H3.58981C3.81002 15.0958 4.2091 14.5875 4.71694 14.2284C5.22838 13.8666 5.84992 13.6567 6.51011 13.6567C7.16985 13.6567 7.7914 13.8666 8.30283 14.2284ZM5.10614 18.1711C5.46567 18.5307 5.96227 18.7536 6.50966 18.7536C7.05705 18.7536 7.5541 18.5307 7.91364 18.1711C8.27317 17.8116 8.49608 17.3145 8.49608 16.7672C8.49608 16.2166 8.27227 15.7223 7.91499 15.365C7.55321 15.0032 7.05346 14.7807 6.50966 14.7807C5.96632 14.7807 5.46657 15.0032 5.10389 15.365C4.74705 15.7218 4.52324 16.2157 4.52324 16.7667C4.52324 17.3141 4.74615 17.8111 5.10569 18.1707L5.10614 18.1711ZM33.0522 9.57874L32.3138 6.62563H28.2182V8.78328L29.2973 7.70423C29.4074 7.59457 29.5512 7.5393 29.695 7.5393C29.8384 7.5393 29.9826 7.59412 30.0923 7.70378C30.2024 7.81389 30.2572 7.9577 30.2572 8.10152C30.2572 8.24533 30.2024 8.38914 30.0928 8.49879L29.0137 9.57829H33.0526L33.0522 9.57874ZM32.5663 5.36727C32.649 5.28458 32.7003 5.17043 32.7003 5.04414C32.7003 4.9183 32.649 4.80371 32.5663 4.72101C32.4836 4.63832 32.369 4.58709 32.2432 4.58709H28.2182V5.50164H32.2432C32.3695 5.50119 32.4836 5.45041 32.5663 5.36772V5.36727ZM12.5763 18.1707C12.9359 18.5302 13.4325 18.7531 13.9799 18.7531C14.5272 18.7531 15.0243 18.5302 15.3834 18.1707C15.7429 17.8111 15.9658 17.3141 15.9658 16.7667C15.9658 16.2162 15.7425 15.7218 15.3847 15.3645C15.0229 15.0027 14.5236 14.7803 13.9794 14.7803C13.4361 14.7803 12.9363 15.0027 12.5736 15.3645C12.2168 15.7214 11.993 16.2153 11.993 16.7663C11.993 17.3136 12.2159 17.8107 12.5754 18.1702L12.5763 18.1707ZM30.8392 18.1707C31.1988 18.5302 31.6954 18.7531 32.2428 18.7531C32.7901 18.7531 33.2872 18.5302 33.6467 18.1707C34.0063 17.8111 34.2292 17.3141 34.2292 16.7667C34.2292 16.2162 34.0054 15.7218 33.6481 15.3645C33.2863 15.0027 32.7865 14.7803 32.2428 14.7803C31.6994 14.7803 31.1997 15.0027 30.837 15.3645C30.4801 15.7214 30.2563 16.2153 30.2563 16.7663C30.2563 17.3136 30.4792 17.8107 30.8388 18.1702L30.8392 18.1707ZM33.9923 14.1978C34.4826 14.5322 34.8759 15.0041 35.1114 15.5636C35.1469 15.529 35.1765 15.489 35.199 15.4445C35.2305 15.3829 35.2485 15.3124 35.2485 15.2373V12.7417H33.7721C33.6171 12.7417 33.4764 12.6784 33.3748 12.5768C33.2728 12.4748 33.2099 12.3341 33.2099 12.1791C33.2099 12.0236 33.2728 11.8829 33.3744 11.7813C33.4764 11.6798 33.6171 11.6168 33.7721 11.6168H35.137C35.0296 11.3566 34.8494 11.1333 34.6224 10.9728C34.382 10.803 34.0885 10.7027 33.7721 10.7027H28.2182V15.6944H29.3229C29.5431 15.0949 29.9422 14.5866 30.45 14.2275C30.9615 13.8657 31.5835 13.6558 32.2432 13.6558C32.8845 13.6558 33.4894 13.8545 33.9923 14.1974V14.1978ZM31.3358 11.7822C31.4374 11.6802 31.5781 11.6173 31.7331 11.6173C31.8877 11.6173 32.0288 11.6802 32.1304 11.7822C32.2324 11.8842 32.2953 12.0249 32.2953 12.1795C32.2953 12.3346 32.2324 12.4752 32.1304 12.5768C32.0284 12.6784 31.8877 12.7417 31.7331 12.7417C31.5781 12.7417 31.4374 12.6784 31.3358 12.5768C31.2338 12.4752 31.1709 12.3346 31.1709 12.1795C31.1709 12.0249 31.2343 11.8838 31.3358 11.7822ZM5.75195 16.0085C5.94565 15.8144 6.21395 15.6944 6.51011 15.6944C6.80583 15.6944 7.07413 15.8144 7.26783 16.0085C7.46197 16.2022 7.58197 16.4705 7.58197 16.7667C7.58197 17.0629 7.46197 17.3307 7.26783 17.5249C7.07368 17.7186 6.80538 17.8386 6.50966 17.8386C6.2135 17.8386 5.94565 17.7186 5.7515 17.5249C5.55735 17.3307 5.43736 17.0629 5.43736 16.7667C5.43736 16.4705 5.55735 16.2022 5.7515 16.0085H5.75195Z" fill="#003C5F"/>
<path d="M5.8079 6.80717V10.2668C5.8079 10.4155 5.85958 10.5418 5.96339 10.6452C6.06946 10.749 6.19529 10.8007 6.3418 10.8007C6.48831 10.8007 6.61325 10.749 6.71661 10.6452C6.81998 10.5418 6.87211 10.4155 6.87211 10.2668V6.80717H8.00374C8.15025 6.80717 8.27609 6.75549 8.38215 6.65168C8.48597 6.54786 8.53765 6.42292 8.53765 6.27686C8.53765 6.13035 8.48597 6.00542 8.38215 5.90205C8.27609 5.79599 8.15025 5.74341 8.00374 5.74341H4.67941C4.53066 5.74341 4.40482 5.79644 4.30101 5.90205C4.19764 6.00587 4.14551 6.1308 4.14551 6.27686C4.14551 6.42337 4.19719 6.54831 4.30101 6.65168C4.40482 6.75504 4.53066 6.80717 4.67941 6.80717H5.8079ZM12.586 7.60803C12.586 7.82645 12.5073 8.01476 12.3496 8.17205C12.1941 8.32755 12.0062 8.4053 11.7856 8.4053H10.3227V6.80717H11.7856C12.0062 6.80717 12.1941 6.88627 12.3496 7.04356C12.5073 7.19906 12.586 7.38692 12.586 7.60758V7.60803ZM11.5658 9.46951L12.7415 10.6452C12.8453 10.749 12.9702 10.8007 13.1163 10.8007C13.2628 10.8007 13.3886 10.749 13.4947 10.6452C13.5981 10.5418 13.6502 10.4155 13.6502 10.2668C13.6502 10.1203 13.5985 9.99532 13.4947 9.89196L12.7819 9.17919C13.0475 9.01021 13.257 8.78955 13.4102 8.5172C13.5702 8.23542 13.6502 7.93251 13.6502 7.60848C13.6502 7.0948 13.4677 6.65572 13.1028 6.29079C12.7379 5.92587 12.2988 5.74341 11.7856 5.74341H9.79242C9.64366 5.74341 9.51737 5.79644 9.41401 5.90205C9.31019 6.00587 9.25851 6.1308 9.25851 6.27686V10.2668C9.25851 10.4155 9.31019 10.5418 9.41401 10.6452C9.51737 10.749 9.64366 10.8007 9.79242 10.8007C9.93893 10.8007 10.0639 10.749 10.1672 10.6452C10.271 10.5418 10.3227 10.4155 10.3227 10.2668V9.46951H11.5658ZM14.8542 5.77711C14.7481 5.81531 14.6641 5.87958 14.6007 5.96992C14.5356 6.06205 14.5027 6.16451 14.5027 6.27731V10.2672C14.5027 10.416 14.5544 10.5423 14.6582 10.6456C14.7616 10.7494 14.8879 10.8011 15.0366 10.8011C15.1832 10.8011 15.3081 10.7494 15.4115 10.6456C15.5153 10.5423 15.567 10.416 15.567 10.2672V7.7469L17.952 10.6083C18.0581 10.7369 18.1942 10.8011 18.3605 10.8011C18.4234 10.8011 18.4846 10.7908 18.543 10.7706C18.6491 10.7324 18.7331 10.6668 18.7965 10.5746C18.8616 10.4825 18.8944 10.38 18.8944 10.2672V6.27731C18.8944 6.1308 18.8428 6.00587 18.7389 5.9025C18.6329 5.79644 18.507 5.74386 18.3605 5.74386C18.214 5.74386 18.0891 5.79689 17.9857 5.9025C17.8823 6.00632 17.8302 6.13125 17.8302 6.27731V8.79764L15.4452 5.93621C15.3733 5.85082 15.2829 5.79329 15.1751 5.76408C15.0668 5.73487 14.9598 5.73936 14.8542 5.77756V5.77711ZM20.2813 9.73646C20.1326 9.73646 20.0063 9.78814 19.9029 9.89196C19.7991 9.99532 19.7474 10.1207 19.7474 10.2668C19.7474 10.4155 19.7991 10.5418 19.9029 10.6452C20.0063 10.749 20.1326 10.8007 20.2813 10.8007H22.6089C23.03 10.8007 23.3904 10.651 23.6897 10.3513C23.9895 10.052 24.1391 9.69152 24.1391 9.27042C24.1391 8.84932 23.9895 8.48889 23.6897 8.18958C23.3899 7.88981 23.03 7.74016 22.6089 7.74016H21.2777C21.1492 7.74016 21.0399 7.69522 20.9501 7.60488C20.8579 7.51231 20.8116 7.40219 20.8116 7.27366C20.8116 7.14513 20.8579 7.03593 20.9501 6.94605C21.0399 6.85391 21.1496 6.80762 21.2777 6.80762H23.6052C23.7517 6.80762 23.8776 6.75594 23.9836 6.65213C24.087 6.54831 24.1391 6.42337 24.1391 6.27731C24.1391 6.1308 24.0874 6.00587 23.9836 5.9025C23.8776 5.79644 23.7517 5.74386 23.6052 5.74386H21.2777C20.8566 5.74386 20.4962 5.89351 20.1968 6.19327C19.8971 6.49303 19.7474 6.85301 19.7474 7.27411C19.7474 7.69746 19.8971 8.05789 20.1968 8.35496C20.4962 8.65472 20.8566 8.80437 21.2777 8.80437H22.6089C22.7374 8.80437 22.8466 8.85067 22.9365 8.9428C23.0291 9.03268 23.0749 9.14189 23.0749 9.27042C23.0749 9.39895 23.0286 9.50906 22.9365 9.60164C22.8466 9.69152 22.7374 9.73691 22.6089 9.73691H20.2813V9.73646Z" fill="#003C5F"/>
</svg>
