<svg width="30" height="25" viewBox="0 0 30 25" fill="none" xmlns="http://www.w3.org/2000/svg">
<path fill-rule="evenodd" clip-rule="evenodd" d="M3.35517 5.57567C2.49321 5.57567 1.78514 6.28374 1.78514 7.1457V21.9223C1.78514 22.7842 2.49321 23.4923 3.35517 23.4923H26.0881C26.9501 23.4923 27.6581 22.7842 27.6581 21.9223V7.1457C27.6581 6.28374 26.9501 5.57567 26.0881 5.57567H3.35517ZM0.378418 7.1457C0.378418 5.50683 1.7163 4.16895 3.35517 4.16895H26.0881C27.727 4.16895 29.0648 5.50683 29.0648 7.1457V21.9223C29.0648 23.5611 27.727 24.899 26.0881 24.899H3.35517C1.7163 24.899 0.378418 23.5611 0.378418 21.9223V7.1457Z" fill="#003C5F"/>
<path fill-rule="evenodd" clip-rule="evenodd" d="M3.35517 5.57616C2.49321 5.57616 1.78514 6.28423 1.78514 7.14619V7.828C1.78514 10.8496 4.198 13.2625 7.21964 13.2625H9.91313C10.3016 13.2625 10.6165 13.5774 10.6165 13.9659C10.6165 14.3543 10.3016 14.6692 9.91313 14.6692H7.21964C3.42109 14.6692 0.378418 11.6265 0.378418 7.828V7.14619C0.378418 5.50732 1.7163 4.16943 3.35517 4.16943H26.0881C27.727 4.16943 29.0648 5.50732 29.0648 7.14619V7.828C29.0648 11.6265 26.0222 14.6692 22.2236 14.6692H19.4486C19.0602 14.6692 18.7453 14.3543 18.7453 13.9659C18.7453 13.5774 19.0602 13.2625 19.4486 13.2625H22.2236C25.2453 13.2625 27.6581 10.8496 27.6581 7.828V7.14619C27.6581 6.28423 26.9501 5.57616 26.0881 5.57616H3.35517Z" fill="#003C5F"/>
<path fill-rule="evenodd" clip-rule="evenodd" d="M17.8466 3.36343C17.1536 2.37621 16.0403 1.77044 14.7289 1.78541L14.7209 1.7855V1.78546C13.4035 1.78546 12.2747 2.42767 11.5767 3.42327C11.3537 3.74135 10.9151 3.81844 10.597 3.59546C10.279 3.37248 10.2019 2.93386 10.4248 2.61578C11.3723 1.26421 12.9203 0.380052 14.7169 0.378737C16.4966 0.359697 18.0425 1.19419 18.998 2.55515C19.2212 2.87309 19.1444 3.31176 18.8264 3.53496C18.5085 3.75815 18.0698 3.68136 17.8466 3.36343Z" fill="#003C5F"/>
<path fill-rule="evenodd" clip-rule="evenodd" d="M14.7218 8.83894C13.5109 8.83894 12.5294 9.82051 12.5294 11.0314C12.5294 12.2422 13.5109 13.2238 14.7218 13.2238C15.9326 13.2238 16.9142 12.2422 16.9142 11.0314C16.9142 9.82051 15.9326 8.83894 14.7218 8.83894ZM11.064 11.0314C11.064 9.0112 12.7016 7.37354 14.7218 7.37354C16.7419 7.37354 18.3796 9.0112 18.3796 11.0314C18.3796 13.0515 16.7419 14.6892 14.7218 14.6892C12.7016 14.6892 11.064 13.0515 11.064 11.0314Z" fill="#003C5F"/>
<path fill-rule="evenodd" clip-rule="evenodd" d="M14.7217 14.6893C13.2799 14.6893 12.1112 15.858 12.1112 17.2998C12.1112 18.7415 13.2799 19.9103 14.7217 19.9103C16.1634 19.9103 17.3322 18.7415 17.3322 17.2998C17.3322 15.858 16.1634 14.6893 14.7217 14.6893ZM10.6458 17.2998C10.6458 15.0487 12.4706 13.2239 14.7217 13.2239C16.9727 13.2239 18.7976 15.0487 18.7976 17.2998C18.7976 19.5508 16.9727 21.3757 14.7217 21.3757C12.4706 21.3757 10.6458 19.5508 10.6458 17.2998Z" fill="#003C5F"/>
</svg>
