<svg width="27" height="31" viewBox="0 0 27 31" fill="none" xmlns="http://www.w3.org/2000/svg">
<path fill-rule="evenodd" clip-rule="evenodd" d="M13.8044 1.78558C10.1548 1.76388 6.49688 2.54118 2.82709 4.18353C2.82295 4.18538 2.8188 4.18719 2.81463 4.18896C2.48788 4.34013 2.29857 4.63628 2.29857 4.99862V16.8065C2.29857 19.4055 4.03641 22.0154 6.47555 24.2238C8.81258 26.3396 11.6632 27.9662 13.8086 28.7333C15.954 27.9662 18.8046 26.3396 21.1417 24.2238C23.5808 22.0154 25.3186 19.4055 25.3186 16.8065V4.99862C25.3186 4.632 25.1249 4.33294 24.7909 4.18366C21.1206 2.54129 17.4629 1.76388 13.8128 1.78558H13.8044ZM13.8086 0.37886C9.95295 0.356549 6.10351 1.17848 2.26795 2.8926C2.26261 2.89483 2.2573 2.89713 2.25201 2.89949C1.41144 3.27556 0.891846 4.07751 0.891846 4.99862V16.8065C0.891846 20.0087 2.99613 22.9712 5.53141 25.2666C8.08624 27.5796 11.2228 29.3485 13.5839 30.1444C13.7297 30.1935 13.8875 30.1935 14.0333 30.1444C16.3944 29.3485 19.531 27.5796 22.0858 25.2666C24.6211 22.9712 26.7254 20.0087 26.7254 16.8065V4.99862C26.7254 4.07856 26.2068 3.27579 25.3652 2.89951M25.3652 2.89951C21.5242 1.18078 17.6699 0.356519 13.8086 0.37886L25.3652 2.89951Z" fill="#003C5F"/>
<path d="M11.0277 5.56616C11.0308 5.17722 11.3491 4.86409 11.7386 4.86721C12.128 4.87033 12.4417 5.18812 12.4386 5.57706L11.0277 5.56616ZM11.023 6.1706L11.0277 5.56616L12.4386 5.57706L12.4339 6.1815L11.023 6.1706ZM12.4339 6.1815C12.4308 6.57044 12.1125 6.88356 11.723 6.88045C11.3335 6.87733 11.0199 6.55953 11.023 6.1706L12.4339 6.1815ZM11.022 9.7427C11.022 9.35377 11.3377 9.03804 11.7272 9.03804C12.1166 9.03804 12.4329 9.35325 12.4334 9.74219L11.0225 9.74322L11.022 9.7427ZM11.0261 16.2612L11.022 9.7427L12.4328 9.74167L12.437 16.2601V16.2607L11.0261 16.2612ZM12.437 16.2601C12.437 16.6491 12.1213 16.9648 11.7318 16.9648C11.3424 16.9648 11.0261 16.6496 11.0256 16.2607L12.4365 16.2596L12.437 16.2601ZM11.0261 18.6509V16.2607H12.437V18.6509H11.0261ZM12.437 18.6509C12.437 19.0398 12.1213 19.355 11.7313 19.355C11.3418 19.355 11.0256 19.0398 11.0256 18.6509H12.4365H12.437ZM11.0261 22.1628C11.0261 21.7738 11.3418 21.4586 11.7318 21.4586C12.1213 21.4586 12.4375 21.7738 12.4375 22.1628H11.0266H11.0261ZM11.0261 22.6457V22.1628H12.437V22.6457H11.0261ZM12.437 22.6457C12.437 23.0346 12.1213 23.3498 11.7313 23.3498C11.3418 23.3498 11.0256 23.0346 11.0256 22.6457H12.4365H12.437Z" fill="#003C5F"/>
<path fill-rule="evenodd" clip-rule="evenodd" d="M10.8314 8.68358C9.51607 8.68358 8.43724 9.76241 8.43724 11.0777C8.43724 12.0595 9.03957 12.914 9.89927 13.2812C10.2565 13.4338 10.4224 13.847 10.2698 14.2043C10.1173 14.5615 9.70398 14.7274 9.34675 14.5749C7.99121 13.9959 7.03052 12.6466 7.03052 11.0777C7.03052 8.9855 8.73916 7.27686 10.8314 7.27686H13.9221C14.3106 7.27686 14.6255 7.59176 14.6255 7.98022C14.6255 8.36867 14.3106 8.68358 13.9221 8.68358H10.8314ZM12.8423 14.1747C12.8423 13.7862 13.1572 13.4713 13.5456 13.4713H14.3194C14.7078 13.4713 15.0227 13.7862 15.0227 14.1747C15.0227 14.5631 14.7078 14.878 14.3194 14.878H13.5456C13.1572 14.878 12.8423 14.5631 12.8423 14.1747ZM17.4085 14.1569C17.568 13.8027 17.9845 13.6449 18.3387 13.8044C19.6579 14.3986 20.5868 15.7289 20.5868 17.2716C20.5868 19.3639 18.8781 21.0725 16.7859 21.0725H14.1148C13.7263 21.0725 13.4114 20.7576 13.4114 20.3691C13.4114 19.9807 13.7263 19.6658 14.1148 19.6658H16.7859C18.1012 19.6658 19.18 18.5869 19.18 17.2716C19.18 16.3063 18.5978 15.464 17.761 15.0871C17.4068 14.9275 17.249 14.5111 17.4085 14.1569Z" fill="#003C5F"/>
<path fill-rule="evenodd" clip-rule="evenodd" d="M12.4683 7.97973C12.4683 7.59127 12.7832 7.27637 13.1716 7.27637H16.4265C17.9202 7.27637 19.2378 8.05312 19.9983 9.21591C20.211 9.54101 20.1198 9.97692 19.7947 10.1895C19.4696 10.4022 19.0337 10.311 18.8211 9.98591C18.3073 9.20037 17.4221 8.68309 16.4265 8.68309H13.1716C12.7832 8.68309 12.4683 8.36818 12.4683 7.97973Z" fill="#003C5F"/>
<path fill-rule="evenodd" clip-rule="evenodd" d="M7.49154 18.1592C7.81663 17.9466 8.25254 18.0378 8.46517 18.3629C8.97896 19.1484 9.86417 19.6657 10.8598 19.6657H14.1146C14.5031 19.6657 14.818 19.9806 14.818 20.3691C14.818 20.7575 14.5031 21.0724 14.1146 21.0724H10.8598C9.36599 21.0724 8.04843 20.2957 7.2879 19.1329C7.07527 18.8078 7.16644 18.3719 7.49154 18.1592Z" fill="#003C5F"/>
<path d="M15.4027 5.56616C15.4058 5.17722 15.7241 4.86409 16.1136 4.86721C16.503 4.87033 16.8167 5.18812 16.8136 5.57706L15.4027 5.56616ZM15.398 6.1706L15.4027 5.56616L16.8136 5.57706L16.8089 6.1815L15.398 6.1706ZM16.8089 6.1815C16.8058 6.57044 16.4875 6.88356 16.098 6.88045C15.7085 6.87733 15.3949 6.55953 15.398 6.1706L16.8089 6.1815ZM15.397 9.7427C15.397 9.35377 15.7127 9.03804 16.1022 9.03804C16.4916 9.03804 16.8078 9.35325 16.8084 9.74219L15.3975 9.74322L15.397 9.7427ZM15.4011 16.2612L15.397 9.7427L16.8078 9.74167L16.812 16.2601V16.2607L15.4011 16.2612ZM16.812 16.2601C16.812 16.6491 16.4963 16.9648 16.1068 16.9648C15.7174 16.9648 15.4011 16.6496 15.4006 16.2607L16.8115 16.2596L16.812 16.2601ZM15.4011 18.6509V16.2607H16.812V18.6509H15.4011ZM16.812 18.6509C16.812 19.0398 16.4963 19.355 16.1063 19.355C15.7168 19.355 15.4006 19.0398 15.4006 18.6509H16.8115H16.812ZM15.4011 22.1628C15.4011 21.7738 15.7168 21.4586 16.1068 21.4586C16.4963 21.4586 16.8125 21.7738 16.8125 22.1628H15.4016H15.4011ZM15.4011 22.6457V22.1628H16.812V22.6457H15.4011ZM16.812 22.6457C16.812 23.0346 16.4963 23.3498 16.1063 23.3498C15.7168 23.3498 15.4006 23.0346 15.4006 22.6457H16.8115H16.812Z" fill="#003C5F"/>
</svg>
