<svg width="36" height="19" viewBox="0 0 36 19" fill="none" xmlns="http://www.w3.org/2000/svg">
<path d="M13.8017 9.1317C13.4569 9.1317 13.177 8.85078 13.177 8.50494C13.177 8.15858 13.4569 7.87817 13.8017 7.87817V9.1317ZM21.5597 9.1317H13.8017V7.87817H21.5597V9.1317ZM21.5597 7.87817C21.9045 7.87817 22.1844 8.1591 22.1844 8.50494C22.1844 8.8513 21.9045 9.1317 21.5597 9.1317V7.87817Z" fill="#003C5F"/>
<path d="M14.1775 8.9485C13.9329 9.19308 13.5357 9.19308 13.2911 8.9485C13.0465 8.70392 13.0465 8.30667 13.2911 8.06209L14.1775 8.9485ZM15.7317 7.3943L14.1775 8.9485L13.2911 8.06209L14.8453 6.5079L15.7317 7.3943ZM14.8453 6.5079C15.0899 6.26332 15.4871 6.26332 15.7317 6.5079C15.9763 6.75248 15.9763 7.14972 15.7317 7.3943L14.8453 6.5079Z" fill="#003C5F"/>
<path d="M21.4923 10.1807C21.8371 10.1807 22.117 10.4616 22.117 10.8074C22.117 11.1538 21.8371 11.4342 21.4923 11.4342V10.1807ZM13.7343 10.1807H21.4923V11.4342H13.7343V10.1807ZM13.7343 11.4342C13.3895 11.4342 13.1096 11.1533 13.1096 10.8074C13.1096 10.4611 13.3895 10.1807 13.7343 10.1807V11.4342Z" fill="#003C5F"/>
<path d="M21.117 10.3643C21.3616 10.1198 21.7589 10.1198 22.0034 10.3643C22.248 10.6089 22.248 11.0062 22.0034 11.2508L21.117 10.3643ZM19.5628 11.9185L21.117 10.3643L22.0034 11.2508L20.4492 12.8049L19.5628 11.9185ZM20.4492 12.8049C20.2047 13.0495 19.8074 13.0495 19.5628 12.8049C19.3182 12.5604 19.3182 12.1631 19.5628 11.9185L20.4492 12.8049Z" fill="#003C5F"/>
<path d="M7.66603 2.39681V0.919985L7.90489 0.926216L8.14117 0.944389L8.37432 0.974505L8.60384 1.01605L8.82921 1.0685L9.05042 1.13185L9.26696 1.20559L9.47882 1.28971L9.68498 1.3837L9.88594 1.48755L10.0807 1.60076L10.2692 1.72227L10.4514 1.85312L10.6269 1.99229L10.7952 2.13925L10.9567 2.29451L11.1104 2.45704L11.2563 2.62685L11.3939 2.80392L11.5232 2.98722L11.6437 3.17728L11.7553 3.37305L11.8582 3.57504L11.9511 3.78275L12.0342 3.99514L12.1074 4.21272L12.1697 4.43497L12.2216 4.66137L12.2627 4.89142L12.2923 5.12561L12.3104 5.3624L12.3167 5.6023H10.8378L10.8336 5.43614L10.8212 5.27256L10.8009 5.11159L10.7729 4.95373L10.7376 4.79846L10.695 4.64683L10.6451 4.4978L10.588 4.35189L10.5246 4.21012L10.4545 4.07199L10.3782 3.9375L10.2956 3.80768L10.2069 3.68202L10.1129 3.56103L10.0132 3.44471L9.90775 3.33306L9.79766 3.22713L9.68238 3.12639L9.56243 3.03136L9.43832 2.94205L9.30954 2.85896L9.17712 2.78211L9.04055 2.712L8.90035 2.64813L8.75703 2.59102L8.61007 2.54065L8.46052 2.49754L8.30785 2.46224L8.15207 2.43419L7.99369 2.41394L7.83272 2.40148L7.66914 2.39733L7.66603 2.39681ZM4.49584 5.60126H3.01694L3.02317 5.36136L3.04134 5.12457L3.07094 4.89038L3.11197 4.66033L3.16389 4.43393L3.22621 4.21168L3.29943 3.9941L3.38251 3.78172L3.47546 3.57401L3.57828 3.37201L3.68992 3.17624L3.81039 2.98618L3.93969 2.80288L4.0773 2.62581L4.22322 2.456L4.37693 2.29347L4.53842 2.13821L4.70667 1.99125L4.88218 1.85208L5.06445 1.72123L5.25295 1.59972L5.44767 1.48651L5.64864 1.38266L5.85479 1.28867L6.06665 1.20455L6.28319 1.13081L6.5044 1.06746L6.72977 1.01501L6.95929 0.973466L7.19245 0.94335L7.42872 0.925176L7.66758 0.918945V2.39577L7.50401 2.39992L7.34304 2.41239L7.18466 2.43263L7.02887 2.46068L6.87621 2.49599L6.72665 2.53909L6.5797 2.58946L6.43638 2.64658L6.29617 2.71045L6.1596 2.78055L6.02719 2.8574L5.89841 2.94049L5.7743 3.0298L5.65435 3.12483L5.53907 3.22557L5.42898 3.33151L5.32409 3.44315L5.22387 3.55947L5.12988 3.68046L5.04108 3.80612L4.95852 3.93594L4.88218 4.07044L4.81208 4.20856L4.74873 4.35033L4.69161 4.49625L4.64176 4.64528L4.59918 4.7969L4.56387 4.95217L4.53582 5.11003L4.51557 5.271L4.50311 5.43458L4.49896 5.60074L4.49584 5.60126ZM7.66603 8.80573V10.2825L7.42716 10.2763L7.19089 10.2581L6.95773 10.228L6.72821 10.1865L6.50285 10.134L6.28163 10.0707L6.0651 9.99695L5.85323 9.91282L5.64708 9.81884L5.44612 9.71498L5.25139 9.60178L5.06289 9.48027L4.88062 9.34941L4.70511 9.21024L4.53686 9.06329L4.37537 8.90802L4.22166 8.74549L4.07574 8.57568L3.93814 8.39861L3.80884 8.21531L3.68836 8.02525L3.57672 7.82948L3.4739 7.62748L3.38095 7.41977L3.29787 7.20739L3.22465 6.98981L3.16234 6.76756L3.11041 6.54116L3.06939 6.31112L3.03979 6.07692L3.02161 5.84014L3.01538 5.60022H4.49428L4.49844 5.7664L4.5109 5.92997L4.53115 6.09094L4.55919 6.24881L4.5945 6.40407L4.63708 6.5557L4.68693 6.70473L4.74405 6.85065L4.80741 6.99241L4.87751 7.13054L4.95384 7.26503L5.03641 7.39485L5.1252 7.52052L5.21919 7.64151L5.31941 7.75782L5.42431 7.86947L5.53439 7.9754L5.64967 8.07614L5.76963 8.17117L5.89373 8.26049L6.02252 8.34357L6.15493 8.42042L6.2915 8.49052L6.4317 8.55439L6.57503 8.61152L6.72198 8.66189L6.87153 8.70498L7.0242 8.7403L7.17998 8.76833L7.33836 8.78859L7.49934 8.80105L7.66291 8.80521L7.66603 8.80573ZM10.8362 5.60126H12.3151L12.3089 5.84117L12.2907 6.07796L12.2611 6.31216L12.2201 6.54219L12.1682 6.7686L12.1058 6.99085L12.0326 7.20843L11.9495 7.42081L11.8566 7.62852L11.7538 7.83052L11.6421 8.02629L11.5217 8.21634L11.3924 8.39965L11.2548 8.57672L11.1088 8.74653L10.9551 8.90906L10.7936 9.06433L10.6254 9.21128L10.4499 9.35045L10.2676 9.48131L10.0791 9.60282L9.88438 9.71601L9.68342 9.81987L9.47727 9.91386L9.2654 9.99799L9.04886 10.0717L8.82765 10.1351L8.60228 10.1875L8.37276 10.2291L8.13961 10.2592L7.90334 10.2774L7.66447 10.2836V8.80676L7.82804 8.80261L7.98902 8.79015L8.1474 8.76989L8.30318 8.74185L8.45585 8.70654L8.6054 8.66345L8.75235 8.61307L8.89568 8.55595L9.03588 8.49208L9.17245 8.42198L9.30487 8.34513L9.43365 8.26204L9.55775 8.17272L9.67771 8.0777L9.79299 7.97696L9.90307 7.87103L10.0085 7.75938L10.1082 7.64306L10.2022 7.52207L10.291 7.39641L10.3735 7.26659L10.4499 7.13209L10.52 6.99397L10.5833 6.85221L10.6404 6.70629L10.6903 6.55725L10.7329 6.40562L10.7682 6.25036L10.7962 6.0925L10.8165 5.93152L10.8289 5.76796L10.8331 5.60178L10.8362 5.60126Z" fill="#003C5F"/>
<path d="M14.9814 18.2103C14.9814 18.6184 14.6501 18.9497 14.242 18.9497C13.8338 18.9497 13.5025 18.6184 13.5025 18.2103H14.9814ZM14.9814 16.4312V18.2103H13.5025V16.4312H14.9814ZM10.0114 12.9401V11.4612L10.2659 11.468L10.5172 11.4872L10.7659 11.5189L11.0105 11.563L11.2504 11.6185L11.4867 11.6861L11.7173 11.7645L11.9431 11.8538L12.1633 11.9535L12.3773 12.0636L12.585 12.1835L12.7864 12.3128L12.9812 12.4515L13.1686 12.5989L13.3488 12.7552L13.5217 12.9199L13.6858 13.0923L13.8421 13.2724L13.9901 13.4604L14.1288 13.6552L14.2581 13.8566L14.378 14.0643L14.4881 14.2783L14.5878 14.4985L14.6771 14.7243L14.7555 14.9554L14.8231 15.1912L14.8786 15.4311L14.9228 15.6757L14.9544 15.9244L14.9736 16.1757L14.9804 16.4302H13.5015L13.4968 16.251L13.4833 16.0745L13.461 15.901L13.4304 15.7302L13.3909 15.5614L13.3436 15.3963L13.2886 15.2348L13.2258 15.0769L13.1557 14.9227L13.0783 14.7721L12.9936 14.6257L12.9022 14.4839L12.8046 14.3468L12.7008 14.2144L12.5902 14.0872L12.4738 13.9652L12.3523 13.8494L12.2256 13.7393L12.0932 13.6354L11.9561 13.5378L11.8144 13.4464L11.6679 13.3618L11.5173 13.2844L11.3631 13.2143L11.2052 13.1515L11.0438 13.0964L10.8791 13.0492L10.7109 13.0102L10.5401 12.9791L10.3666 12.9567L10.1901 12.9432L10.0109 12.9386L10.0114 12.9401ZM5.32132 11.4612H10.0114V12.9401H5.32132V11.4612ZM1.83022 16.4312H0.351318L0.358069 16.1768L0.377282 15.9254L0.408958 15.6767L0.453097 15.4321L0.508659 15.1922L0.576165 14.9565L0.655095 14.7254L0.744411 14.5L0.844632 14.2799L0.954718 14.0654L1.07467 13.8572L1.20397 13.6557L1.34262 13.4609L1.49009 13.2735L1.6464 13.0933L1.81101 12.9204L1.98393 12.7558L2.16411 12.5995L2.35157 12.452L2.5463 12.3133L2.74778 12.184L2.95601 12.0641L3.17047 11.954L3.39065 11.8538L3.61601 11.7645L3.84709 11.6855L4.08284 11.618L4.32275 11.5625L4.56733 11.5183L4.81606 11.4867L5.06739 11.4674L5.32184 11.4607V12.9396L5.14269 12.9443L4.96613 12.9578L4.7927 12.9801L4.62185 13.0107L4.45309 13.0502L4.28848 13.0974L4.12646 13.1525L3.9686 13.2153L3.81438 13.2854L3.66379 13.3628L3.51735 13.4469L3.37559 13.5383L3.2385 13.6359L3.10608 13.7403L2.97886 13.8504L2.85735 13.9662L2.74155 14.0877L2.63146 14.2149L2.52709 14.3473L2.42947 14.4844L2.33807 14.6262L2.25395 14.7726L2.17658 14.9232L2.10647 15.0775L2.04364 15.2353L1.9886 15.3973L1.94134 15.5619L1.90188 15.7307L1.87124 15.9016L1.84891 16.075L1.83541 16.2515L1.83074 16.4307L1.83022 16.4312ZM0.351318 18.2103V16.4312H1.83022V18.2103H0.351318ZM1.83022 18.2103C1.83022 18.6184 1.49892 18.9497 1.09077 18.9497C0.682617 18.9497 0.351318 18.6184 0.351318 18.2103H1.83022Z" fill="#003C5F"/>
<path d="M27.8938 2.39681V0.919985L28.1327 0.926216L28.3689 0.944389L28.6021 0.974505L28.8311 1.01605L29.0565 1.0685L29.2777 1.13185L29.4942 1.20559L29.7061 1.28971L29.9122 1.3837L30.1132 1.48755L30.3079 1.60076L30.4964 1.72227L30.6787 1.85312L30.8537 1.99229L31.0225 2.13925L31.1839 2.29451L31.3377 2.45704L31.4836 2.62685L31.6212 2.8034L31.7505 2.98722L31.871 3.17728L31.9826 3.37305L32.0854 3.57504L32.1784 3.78275L32.2614 3.99514L32.3347 4.21272L32.397 4.43497L32.4489 4.66137L32.4899 4.89142L32.5195 5.12561L32.5377 5.3624L32.5439 5.6023H31.065L31.0609 5.43614L31.0484 5.27256L31.0282 5.11159L31.0001 4.95373L30.9648 4.79846L30.9222 4.64683L30.8724 4.4978L30.8153 4.35189L30.7519 4.21012L30.6818 4.07199L30.6055 3.9375L30.5229 3.80768L30.4341 3.68202L30.3396 3.56103L30.2399 3.44471L30.1345 3.33306L30.0244 3.22713L29.9091 3.12639L29.7892 3.03136L29.6651 2.94205L29.5363 2.85896L29.4033 2.78211L29.2673 2.712L29.1271 2.64813L28.9838 2.59102L28.8368 2.54117L28.6867 2.49806L28.5341 2.46276L28.3783 2.43471L28.2204 2.41446L28.0595 2.402L27.8959 2.39785L27.8938 2.39681ZM24.7236 5.60126H23.2447L23.251 5.36136L23.2691 5.12457L23.2987 4.89038L23.3397 4.66033L23.3917 4.43393L23.454 4.21168L23.5272 3.9941L23.6103 3.78172L23.7032 3.57401L23.8061 3.37201L23.9177 3.17624L24.0382 2.98618L24.1675 2.80288L24.3051 2.62581L24.451 2.456L24.6047 2.29347L24.7662 2.13821L24.9344 1.99125L25.11 1.85208L25.2922 1.72123L25.4807 1.59972L25.6755 1.48651L25.8764 1.38266L26.0826 1.28867L26.2944 1.20455L26.511 1.13081L26.7322 1.06746L26.9576 1.01501L27.1871 0.973466L27.4202 0.94335L27.6565 0.925176L27.8954 0.918945V2.39577L27.7318 2.39992L27.5708 2.41239L27.4124 2.43263L27.2567 2.46068L27.104 2.49599L26.9544 2.53909L26.8075 2.58946L26.6642 2.64658L26.524 2.71045L26.3874 2.78055L26.255 2.8574L26.1262 2.94049L26.0021 3.0298L25.8821 3.12483L25.7668 3.22557L25.6568 3.33151L25.5519 3.44315L25.4516 3.55947L25.3577 3.68046L25.2689 3.80612L25.1863 3.93594L25.11 4.07044L25.0399 4.20856L24.9765 4.35033L24.9194 4.49625L24.8695 4.64528L24.827 4.7969L24.7916 4.95217L24.7636 5.11003L24.7434 5.271L24.7309 5.43458L24.7267 5.60074L24.7236 5.60126ZM27.8938 8.80573V10.2825L27.6549 10.2763L27.4187 10.2581L27.1855 10.228L26.956 10.1865L26.7306 10.134L26.5094 10.0707L26.2929 9.99695L26.081 9.91282L25.8749 9.81884L25.6739 9.71498L25.4792 9.60178L25.2907 9.48027L25.1084 9.34941L24.9329 9.21024L24.7646 9.06329L24.6031 8.90802L24.4494 8.74549L24.3035 8.57568L24.1659 8.39861L24.0366 8.21531L23.9161 8.02525L23.8045 7.82948L23.7017 7.62748L23.6087 7.41977L23.5256 7.20739L23.4524 6.98981L23.3901 6.76756L23.3382 6.54116L23.2972 6.31112L23.2676 6.07692L23.2494 5.84014L23.2432 5.60022H24.7221L24.7262 5.7664L24.7387 5.92997L24.7589 6.09094L24.787 6.24881L24.8223 6.40407L24.8649 6.5557L24.9147 6.70473L24.9718 6.85065L25.0352 6.99241L25.1053 7.13054L25.1816 7.26503L25.2642 7.39485L25.353 7.52052L25.447 7.64151L25.5472 7.75782L25.6521 7.86947L25.7622 7.9754L25.8775 8.07614L25.9974 8.17117L26.1215 8.26049L26.2503 8.34357L26.3827 8.42042L26.5193 8.49052L26.6595 8.55439L26.8028 8.61152L26.9498 8.66189L27.0993 8.70498L27.252 8.7403L27.4078 8.76833L27.5661 8.78859L27.7271 8.80105L27.8907 8.80521L27.8938 8.80573ZM31.064 5.60126H32.5429L32.5367 5.84117L32.5185 6.07796L32.4889 6.31216L32.4479 6.54219L32.3959 6.7686L32.3336 6.99085L32.2604 7.20843L32.1773 7.42081L32.0844 7.62852L31.9816 7.83052L31.8699 8.02629L31.7494 8.21634L31.6201 8.40017L31.4825 8.57672L31.3366 8.74653L31.1829 8.90906L31.0214 9.06433L30.8527 9.21128L30.6777 9.35045L30.4954 9.48131L30.3069 9.60282L30.1122 9.71601L29.9112 9.81987L29.705 9.91386L29.4932 9.99799L29.2766 10.0717L29.0554 10.1351L28.8301 10.1875L28.6011 10.2291L28.3679 10.2592L28.1316 10.2774L27.8928 10.2836V8.80676L28.0563 8.80261L28.2173 8.79015L28.3752 8.76989L28.531 8.74185L28.6836 8.70654L28.8337 8.66345L28.9807 8.61359L29.124 8.55647L29.2642 8.4926L29.4002 8.4225L29.5332 8.34565L29.6619 8.26256L29.7861 8.17324L29.906 8.07822L30.0213 7.97748L30.1314 7.87155L30.2368 7.7599L30.3365 7.64358L30.431 7.52259L30.5198 7.39693L30.6024 7.26711L30.6787 7.13261L30.7488 6.99449L30.8121 6.85273L30.8693 6.70681L30.9191 6.55777L30.9617 6.40614L30.997 6.25088L31.0251 6.09302L31.0453 5.93204L31.0578 5.76848L31.0619 5.6023L31.064 5.60126Z" fill="#003C5F"/>
<path d="M35.2085 18.2103C35.2085 18.6184 34.8772 18.9497 34.469 18.9497C34.0609 18.9497 33.7296 18.6184 33.7296 18.2103H35.2085ZM35.2085 16.4312V18.2103H33.7296V16.4312H35.2085ZM30.2385 12.9401V11.4612L30.4929 11.468L30.7443 11.4872L30.993 11.5189L31.2376 11.563L31.4775 11.6185L31.7137 11.6861L31.9443 11.7645L32.1702 11.8538L32.3904 11.9535L32.6043 12.0636L32.812 12.1835L33.0135 12.3128L33.2082 12.4515L33.3957 12.5989L33.5759 12.7552L33.7488 12.9199L33.9129 13.0923L34.0692 13.2724L34.2172 13.4604L34.3558 13.6552L34.4851 13.8566L34.6051 14.0643L34.7152 14.2783L34.8149 14.4985L34.9042 14.7243L34.9826 14.9554L35.0501 15.1912L35.1057 15.4311L35.1498 15.6757L35.1815 15.9244L35.2007 16.1757L35.2074 16.4302H33.7285L33.7239 16.251L33.7104 16.0745L33.688 15.901L33.6574 15.7302L33.6179 15.5614L33.5707 15.3963L33.5156 15.2348L33.4528 15.0769L33.3827 14.9227L33.3053 14.7721L33.2207 14.6257L33.1293 14.4839L33.0317 14.3468L32.9278 14.2144L32.8172 14.0872L32.7009 13.9652L32.5794 13.8494L32.4527 13.7393L32.3203 13.6354L32.1832 13.5378L32.0414 13.4464L31.895 13.3618L31.7444 13.2844L31.5902 13.2143L31.4323 13.1515L31.2708 13.0964L31.1062 13.0492L30.9379 13.0102L30.7671 12.9791L30.5937 12.9567L30.4171 12.9432L30.238 12.9386L30.2385 12.9401ZM25.5484 11.4612H30.2385V12.9401H25.5484V11.4612ZM22.0573 16.4312H20.5784L20.5851 16.1768L20.6043 15.9254L20.636 15.6767L20.6801 15.4321L20.7357 15.1922L20.8032 14.9565L20.8821 14.7254L20.9715 14.5L21.0717 14.2799L21.1818 14.0654L21.3017 13.8572L21.431 13.6557L21.5697 13.4609L21.7171 13.2735L21.8734 13.0933L22.0381 12.9204L22.211 12.7558L22.3912 12.5995L22.5786 12.452L22.7734 12.3133L22.9748 12.184L23.1831 12.0641L23.3975 11.954L23.6177 11.8538L23.8431 11.7645L24.0741 11.6855L24.3099 11.618L24.5498 11.5625L24.7944 11.5183L25.0431 11.4867L25.2944 11.4674L25.5489 11.4607V12.9396L25.3697 12.9443L25.1932 12.9578L25.0197 12.9801L24.8489 13.0107L24.6801 13.0502L24.5155 13.0974L24.3535 13.1525L24.1957 13.2153L24.0414 13.2854L23.8908 13.3628L23.7444 13.4469L23.6026 13.5383L23.4656 13.6359L23.3331 13.7403L23.2059 13.8504L23.0844 13.9662L22.9686 14.0877L22.8585 14.2149L22.7541 14.3473L22.6565 14.4844L22.5651 14.6262L22.481 14.7726L22.4036 14.9232L22.3335 15.0775L22.2707 15.2353L22.2157 15.3973L22.1684 15.5619L22.1289 15.7307L22.0983 15.9016L22.076 16.075L22.0625 16.2515L22.0578 16.4307L22.0573 16.4312ZM20.5784 18.2103V16.4312H22.0573V18.2103H20.5784ZM22.0573 18.2103C22.0573 18.6184 21.726 18.9497 21.3178 18.9497C20.9097 18.9497 20.5784 18.6184 20.5784 18.2103H22.0573Z" fill="#003C5F"/>
</svg>
