<svg width="28" height="32" viewBox="0 0 28 32" fill="none" xmlns="http://www.w3.org/2000/svg">
<path fill-rule="evenodd" clip-rule="evenodd" d="M0.405273 1.32543C0.405273 0.936976 0.720179 0.62207 1.10863 0.62207H16.5701C16.7566 0.62207 16.9355 0.696165 17.0674 0.828057L22.6756 6.43573C22.8076 6.56764 22.8817 6.74655 22.8817 6.93311V11.7702C22.8817 12.1586 22.5668 12.4735 22.1783 12.4735C21.7899 12.4735 21.4749 12.1586 21.4749 11.7702V7.22447L16.2788 2.02879H1.812V29.8075H22.1783C22.5668 29.8075 22.8817 30.1224 22.8817 30.5109C22.8817 30.8993 22.5668 31.2143 22.1783 31.2143H1.10863C0.720179 31.2143 0.405273 30.8993 0.405273 30.5109V1.32543Z" fill="#003C5F"/>
<path d="M15.8697 1.3252C15.8697 0.936783 16.1833 0.621582 16.5707 0.621582C16.9575 0.621582 17.2717 0.936783 17.2717 1.3252H15.8702H15.8697ZM15.8697 6.9334V1.3252H17.2712V6.9334H15.8697ZM17.2712 6.9334C17.2712 7.32181 16.9575 7.63702 16.5702 7.63702C16.1833 7.63702 15.8691 7.32181 15.8691 6.9334H17.2707H17.2712Z" fill="#003C5F"/>
<path fill-rule="evenodd" clip-rule="evenodd" d="M15.8669 6.93285C15.8669 6.5444 16.1818 6.22949 16.5703 6.22949H22.1785C22.567 6.22949 22.8819 6.5444 22.8819 6.93285C22.8819 7.32131 22.567 7.63621 22.1785 7.63621H16.5703C16.1818 7.63621 15.8669 7.32131 15.8669 6.93285Z" fill="#003C5F"/>
<path fill-rule="evenodd" clip-rule="evenodd" d="M15.7512 15.7935V21.7235C15.7512 22.8642 16.5231 24.0733 17.7116 25.1493C18.7977 26.1327 20.1135 26.8953 21.1203 27.2768C22.1271 26.8953 23.443 26.1327 24.5292 25.1493C25.7179 24.0732 26.4899 22.8642 26.4899 21.7235V15.7936C24.6891 14.9798 22.9025 14.5976 21.1244 14.6081L21.1161 14.6082C19.3379 14.5977 17.5514 14.9794 15.7512 15.7935ZM15.0478 15.3468L14.7399 14.7144C16.8528 13.6856 18.9818 13.1894 21.1203 13.2014C23.2589 13.1894 25.3878 13.6862 27.5009 14.7143C27.743 14.8321 27.8966 15.0776 27.8966 15.3468V21.7235C27.8966 23.4674 26.7581 25.029 25.4733 26.1922C24.169 27.373 22.5675 28.2783 21.345 28.6904C21.1992 28.7395 21.0413 28.7395 20.8956 28.6904C19.673 28.2783 18.0717 27.373 16.7674 26.1921C15.4828 25.029 14.3445 23.4674 14.3445 21.7235V15.3468H15.0478Z" fill="#003C5F"/>
<path fill-rule="evenodd" clip-rule="evenodd" d="M24.6415 18.1811C24.9162 18.4558 24.9162 18.9011 24.6415 19.1758L21.4376 22.3797C21.3057 22.5117 21.1268 22.5858 20.9402 22.5858C20.7536 22.5857 20.5747 22.5116 20.4428 22.3797L18.8014 20.7377C18.5268 20.463 18.5268 20.0176 18.8015 19.743C19.0763 19.4684 19.5216 19.4684 19.7962 19.7432L20.9403 20.8876L23.6468 18.1811C23.9215 17.9064 24.3669 17.9064 24.6415 18.1811Z" fill="#003C5F"/>
<path d="M5.21632 7.46404C5.68522 7.46404 6.08559 7.29839 6.41689 6.96709C6.48647 6.89751 6.52126 6.81286 6.52126 6.71316C6.52126 6.61502 6.48647 6.5309 6.41689 6.46131C6.3473 6.39173 6.26318 6.35694 6.16504 6.35694C6.06533 6.35694 5.98017 6.39173 5.91059 6.46131C5.71846 6.65345 5.48686 6.74951 5.21632 6.74951C4.94525 6.74951 4.71418 6.65345 4.52204 6.46131C4.32991 6.26918 4.23384 6.03758 4.23384 5.76704C4.23384 5.49494 4.32991 5.2623 4.52204 5.07017C4.71418 4.87804 4.94577 4.78197 5.21632 4.78197C5.48686 4.78197 5.71846 4.87804 5.91059 5.07017C5.98017 5.14131 6.06482 5.17714 6.16504 5.17714C6.26318 5.17714 6.3473 5.14131 6.41689 5.07017C6.48647 5.00059 6.52126 4.91646 6.52126 4.81832C6.52126 4.72018 6.48647 4.63605 6.41689 4.56647C6.08559 4.23361 5.68522 4.06745 5.21632 4.06745C4.74741 4.06745 4.34705 4.23361 4.01575 4.56647C3.68445 4.89621 3.5188 5.29657 3.5188 5.76704C3.5188 6.23595 3.68445 6.63631 4.01575 6.96761C4.34705 7.29891 4.74741 7.46456 5.21632 7.46456V7.46404ZM7.86982 4.17338C7.81841 4.12197 7.75714 4.08874 7.686 4.07368C7.61486 4.06018 7.54631 4.06693 7.47933 4.09393C7.41286 4.12249 7.35989 4.16663 7.32043 4.22531C7.2794 4.28554 7.25915 4.35253 7.25915 4.42523V7.10522C7.25915 7.20492 7.29394 7.29008 7.36353 7.35966C7.43311 7.42924 7.51775 7.46404 7.61745 7.46404C7.7156 7.46404 7.79972 7.42924 7.8693 7.35966C7.93889 7.29008 7.97368 7.20544 7.97368 7.10522V5.28723L8.7043 6.01785C8.77388 6.08743 8.85801 6.12222 8.95615 6.12222C9.05585 6.12222 9.14049 6.08743 9.21008 6.01785L9.9407 5.28723V7.10522C9.9407 7.20492 9.97549 7.29008 10.0451 7.35966C10.1147 7.42924 10.1988 7.46404 10.2969 7.46404C10.3951 7.46404 10.4792 7.42924 10.5488 7.35966C10.6199 7.29008 10.6557 7.20544 10.6557 7.10522V4.42523C10.6557 4.35253 10.6355 4.28606 10.5945 4.22531C10.555 4.16611 10.5015 4.12249 10.433 4.09393C10.3665 4.06693 10.2974 4.05966 10.2263 4.07368C10.1567 4.08874 10.096 4.12197 10.0446 4.17338L8.95511 5.26074L7.86775 4.17338H7.86982ZM13.8592 5.31942C13.8592 5.46638 13.8062 5.59256 13.7003 5.69849C13.5959 5.80287 13.4697 5.85532 13.3212 5.85532H12.3387V4.78197H13.3212C13.4692 4.78197 13.5959 4.83494 13.7003 4.94087C13.8062 5.04524 13.8592 5.17143 13.8592 5.31994V5.31942ZM13.1737 6.56984L13.9635 7.35966C14.0331 7.42924 14.1172 7.46404 14.2154 7.46404C14.3135 7.46404 14.3982 7.42924 14.4693 7.35966C14.5389 7.29008 14.5737 7.20544 14.5737 7.10522C14.5737 7.00707 14.5389 6.92295 14.4693 6.85337L13.9905 6.37459C14.1692 6.26087 14.3099 6.11288 14.4127 5.92957C14.5202 5.74056 14.5737 5.537 14.5737 5.31942C14.5737 4.9741 14.4511 4.67915 14.206 4.43405C13.9609 4.18896 13.666 4.06641 13.3212 4.06641H11.982C11.8823 4.06641 11.7976 4.10172 11.7281 4.17286C11.6585 4.24244 11.6237 4.32656 11.6237 4.42471V7.1047C11.6237 7.2044 11.6585 7.28956 11.7281 7.35914C11.7976 7.42873 11.8823 7.46352 11.982 7.46352C12.0801 7.46352 12.1642 7.42873 12.2338 7.35914C12.3034 7.28956 12.3382 7.20492 12.3382 7.1047V6.56932H13.1732L13.1737 6.56984Z" fill="#003C5F"/>
<path d="M9.49942 12.0228C9.18889 12.0228 8.93652 11.7066 8.93652 11.3161C8.93652 10.9261 9.18837 10.6094 9.49942 10.6094V12.0228ZM17.1993 12.0228H9.49942V10.6094H17.1993V12.0228ZM17.1993 10.6094C17.5098 10.6094 17.7622 10.9256 17.7622 11.3161C17.7622 11.7061 17.5103 12.0228 17.1993 12.0228V10.6094Z" fill="#003C5F"/>
<path d="M4.41264 12.0212C4.0237 12.0212 3.7085 11.7055 3.7085 11.3165C3.7085 10.9271 4.0237 10.6119 4.41264 10.6119V12.0217V12.0212ZM6.44093 12.0212H4.41264V10.6114H6.44093V12.0212ZM6.44093 10.6114C6.82987 10.6114 7.14507 10.9271 7.14507 11.316C7.14507 11.7055 6.82987 12.0207 6.44093 12.0207V10.6108V10.6114Z" fill="#003C5F"/>
<path fill-rule="evenodd" clip-rule="evenodd" d="M8.79614 14.5596C8.79614 14.1711 9.11105 13.8562 9.4995 13.8562H12.1525C12.5409 13.8562 12.8559 14.1711 12.8559 14.5596C12.8559 14.948 12.5409 15.2629 12.1525 15.2629H9.4995C9.11105 15.2629 8.79614 14.948 8.79614 14.5596Z" fill="#003C5F"/>
<path d="M4.41212 15.2632C4.0237 15.2632 3.7085 14.948 3.7085 14.5596C3.7085 14.1712 4.0237 13.856 4.41212 13.856V15.2627V15.2632ZM6.44041 15.2632H4.41212V13.8565H6.44041V15.2632ZM6.44041 13.8565C6.82883 13.8565 7.14403 14.1717 7.14403 14.5601C7.14403 14.9485 6.82883 15.2637 6.44041 15.2637V13.857V13.8565Z" fill="#003C5F"/>
<path fill-rule="evenodd" clip-rule="evenodd" d="M8.79614 17.8035C8.79614 17.415 9.11105 17.1001 9.4995 17.1001H12.2345C12.623 17.1001 12.9379 17.415 12.9379 17.8035C12.9379 18.1919 12.623 18.5068 12.2345 18.5068H9.4995C9.11105 18.5068 8.79614 18.1919 8.79614 17.8035Z" fill="#003C5F"/>
<path d="M4.41212 18.5064C4.0237 18.5064 3.7085 18.1912 3.7085 17.8027C3.7085 17.4143 4.0237 17.0991 4.41212 17.0991V18.5058V18.5064ZM6.44041 18.5064H4.41212V17.0996H6.44041V18.5064ZM6.44041 17.0996C6.82883 17.0996 7.14403 17.4148 7.14403 17.8033C7.14403 18.1917 6.82883 18.5069 6.44041 18.5069V17.1002V17.0996Z" fill="#003C5F"/>
<path d="M4.41212 24.9887C4.0237 24.9887 3.7085 24.6756 3.7085 24.2898C3.7085 23.9039 4.0237 23.5908 4.41212 23.5908V24.9882V24.9887ZM12.3882 24.9887H4.41212V23.5913H12.3882V24.9887ZM12.3882 23.5913C12.7766 23.5913 13.0918 23.9045 13.0918 24.2903C13.0918 24.6761 12.7766 24.9892 12.3882 24.9892V23.5919V23.5913Z" fill="#003C5F"/>
<path fill-rule="evenodd" clip-rule="evenodd" d="M8.79614 21.0466C8.79614 20.6582 9.11105 20.3433 9.4995 20.3433H12.2345C12.623 20.3433 12.9379 20.6582 12.9379 21.0466C12.9379 21.4351 12.623 21.75 12.2345 21.75H9.4995C9.11105 21.75 8.79614 21.4351 8.79614 21.0466Z" fill="#003C5F"/>
<path d="M4.41212 21.75C4.0237 21.75 3.7085 21.4348 3.7085 21.0464C3.7085 20.658 4.0237 20.3428 4.41212 20.3428V21.7495V21.75ZM6.44041 21.75H4.41212V20.3433H6.44041V21.75ZM6.44041 20.3433C6.82883 20.3433 7.14403 20.6585 7.14403 21.0469C7.14403 21.4353 6.82883 21.7505 6.44041 21.7505V20.3438V20.3433Z" fill="#003C5F"/>
</svg>
