<svg width="38" height="22" viewBox="0 0 38 22" fill="none" xmlns="http://www.w3.org/2000/svg">
<path fill-rule="evenodd" clip-rule="evenodd" d="M0.86499 4.1625C0.86499 2.09463 2.5545 0.405273 4.62274 0.405273H27.6241C28.5147 0.405273 29.3362 0.719306 29.9805 1.24048C30.2825 1.48479 30.3293 1.92767 30.085 2.22968C29.8407 2.5317 29.3978 2.57848 29.0958 2.33418C28.6912 2.00685 28.1792 1.812 27.6241 1.812H4.62274C3.33126 1.812 2.27171 2.87169 2.27171 4.1625V18.1321C2.27171 19.4235 3.33133 20.4831 4.62274 20.4831H27.6241C28.2481 20.4831 28.818 20.2367 29.2418 19.8326C29.5229 19.5645 29.9681 19.5751 30.2362 19.8562C30.5043 20.1373 30.4937 20.5826 30.2126 20.8506C29.5396 21.4924 28.6265 21.8898 27.6241 21.8898H4.62274C2.55442 21.8898 0.86499 20.2004 0.86499 18.1321V4.1625Z" fill="#003C5F"/>
<path d="M10.6882 5.84947V4.44482L10.87 4.4495L11.0496 4.46352L11.2267 4.48637L11.4012 4.51804L11.5731 4.55803L11.7413 4.60632L11.9064 4.6624L12.0674 4.72627L12.2248 4.79793L12.3774 4.87686L12.5254 4.96306L12.6687 5.05549L12.8074 5.15519L12.9409 5.26113L13.0691 5.37329L13.1917 5.49117L13.3085 5.61475L13.4191 5.74406L13.524 5.87855L13.6221 6.01823L13.7141 6.16259L13.7992 6.31163L13.8771 6.46533L13.9477 6.62267L14.0111 6.78469L14.0666 6.94982L14.1144 7.1191L14.1539 7.2915L14.1845 7.4665L14.2068 7.64409L14.2204 7.82428L14.225 8.00654H12.8183L12.8157 7.89438L12.8074 7.7843L12.7939 7.67576L12.7752 7.56931L12.7513 7.46494L12.7222 7.36264L12.6885 7.26242L12.6501 7.1648L12.6075 7.06925L12.5602 6.9763L12.5088 6.88595L12.4532 6.79819L12.3935 6.71355L12.3302 6.63202L12.2627 6.55361L12.1921 6.47831L12.1178 6.40717L12.0404 6.33967L11.9599 6.2758L11.8763 6.21608L11.7896 6.15999L11.7003 6.10807L11.6089 6.06081L11.5149 6.01771L11.4188 5.97929L11.3202 5.94553L11.2194 5.91645L11.1171 5.89257L11.0123 5.87388L10.9058 5.86037L10.7978 5.85206L10.6877 5.84895L10.6882 5.84947ZM8.55711 8.00603H7.15039L7.15506 7.82376L7.16856 7.64357L7.19089 7.46598L7.22153 7.29098L7.261 7.11858L7.30877 6.9493L7.36433 6.78417L7.42768 6.62215L7.49831 6.46481L7.5762 6.31111L7.66136 6.16207L7.75327 6.01771L7.85141 5.87803L7.95631 5.74354L8.06691 5.61424L8.18375 5.49065L8.3063 5.37277L8.43456 5.26061L8.56802 5.15519L8.70666 5.05601L8.8505 4.96306L8.9985 4.87686L9.15117 4.79793L9.30799 4.72627L9.46948 4.6624L9.63409 4.60632L9.80286 4.55803L9.97474 4.51804L10.1492 4.48637L10.3268 4.46352L10.5065 4.4495L10.6882 4.44482V5.84947L10.5781 5.85258L10.4701 5.86089L10.3637 5.87439L10.2593 5.89309L10.157 5.91697L10.0563 5.94605L9.9576 5.97981L9.86102 6.01823L9.76703 6.06133L9.67512 6.10859L9.5858 6.16051L9.4996 6.2166L9.416 6.27683L9.33499 6.34071L9.25762 6.40821L9.18336 6.47935L9.11274 6.55465L9.04523 6.63306L8.98188 6.71459L8.92216 6.79922L8.8666 6.88698L8.81519 6.97734L8.76794 7.07029L8.72536 7.16583L8.68693 7.26346L8.65318 7.36368L8.6241 7.46598L8.60021 7.57035L8.58152 7.6768L8.56802 7.78533L8.55971 7.89542L8.55711 8.00758V8.00603ZM10.6882 10.1626V11.5672L10.5065 11.5626L10.3268 11.5485L10.1492 11.5257L9.97474 11.494L9.80286 11.454L9.63409 11.4057L9.46948 11.3497L9.30799 11.2858L9.15117 11.2141L8.9985 11.1352L8.8505 11.049L8.70666 10.956L8.56802 10.8569L8.43456 10.7514L8.3063 10.6393L8.18375 10.5214L8.06691 10.3978L7.95631 10.2685L7.85141 10.134L7.75327 9.99434L7.66136 9.84946L7.5762 9.70043L7.49831 9.54724L7.42768 9.38938L7.36433 9.22737L7.30877 9.06224L7.261 8.89347L7.22153 8.72107L7.19089 8.54607L7.16856 8.36848L7.15506 8.18829L7.15039 8.00603H8.55711L8.55971 8.11819L8.56802 8.22828L8.58152 8.33681L8.60021 8.44326L8.6241 8.54711L8.65318 8.64941L8.68693 8.74963L8.72536 8.84777L8.76794 8.94332L8.81519 9.03627L8.8666 9.12663L8.92216 9.21386L8.98188 9.29851L9.04523 9.38003L9.11274 9.45844L9.18336 9.53374L9.25762 9.60488L9.33499 9.67239L9.416 9.73626L9.4996 9.79649L9.5858 9.85258L9.67512 9.9045L9.76703 9.95176L9.86102 9.99486L9.9576 10.0333L10.0563 10.067L10.157 10.0961L10.2593 10.12L10.3637 10.1387L10.4701 10.1522L10.5781 10.1605L10.6882 10.1636V10.1626ZM12.8193 8.00603H14.2261L14.2214 8.18829L14.2079 8.36848L14.1856 8.54607L14.1549 8.72107L14.1155 8.89347L14.0677 9.06224L14.0121 9.22737L13.9488 9.38938L13.8781 9.54724L13.8003 9.70043L13.7151 9.84946L13.6232 9.99434L13.525 10.134L13.4201 10.2685L13.3095 10.3978L13.1927 10.5214L13.0702 10.6393L12.9419 10.7514L12.8084 10.8574L12.6698 10.9571L12.5265 11.0495L12.3785 11.1357L12.2258 11.2146L12.0685 11.2863L11.9075 11.3502L11.7424 11.4063L11.5741 11.4545L11.4022 11.4945L11.2278 11.5262L11.0507 11.5491L10.871 11.5631L10.6893 11.5677V10.1631L10.7994 10.16L10.9074 10.1517L11.0138 10.1382L11.1187 10.1195L11.221 10.0956L11.3217 10.0665L11.4204 10.0328L11.5165 9.99434L11.6105 9.95124L11.7019 9.90399L11.7912 9.85206L11.8779 9.79597L11.9615 9.73626L12.042 9.67239L12.1194 9.60488L12.1936 9.53374L12.2642 9.45844L12.3317 9.38003L12.3951 9.29851L12.4548 9.21386L12.5104 9.12663L12.5618 9.03627L12.609 8.94332L12.6516 8.84777L12.69 8.74963L12.7238 8.64941L12.7529 8.54711L12.7768 8.44326L12.7955 8.33681L12.809 8.22828L12.8173 8.11819L12.8199 8.00603H12.8193Z" fill="#003C5F"/>
<path d="M17.9 7.45851C17.5126 7.45851 17.199 7.14331 17.199 6.75489C17.199 6.36647 17.5131 6.05127 17.9 6.05127V7.45799V7.45851ZM21.8932 7.45851H17.9V6.05179H21.8932V7.45851ZM21.8932 6.05179C22.2806 6.05179 22.5943 6.36699 22.5943 6.75541C22.5943 7.14383 22.2801 7.45903 21.8932 7.45903V6.05231V6.05179Z" fill="#003C5F"/>
<path d="M17.9 11.7095C17.5126 11.7095 17.199 11.3943 17.199 11.0059C17.199 10.6174 17.5131 10.3022 17.9 10.3022V11.709V11.7095ZM21.7951 11.7095H17.9V10.3028H21.7951V11.7095ZM21.7951 10.3028C22.1825 10.3028 22.4961 10.618 22.4961 11.0064C22.4961 11.3948 22.182 11.71 21.7951 11.71V10.3033V10.3028Z" fill="#003C5F"/>
<path d="M16.1583 17.1475C16.1583 17.5359 15.8431 17.8511 15.4547 17.8511C15.0663 17.8511 14.7511 17.5359 14.7511 17.1475H16.1578H16.1583ZM16.1583 15.8576V17.1475H14.7516V15.8576H16.1583ZM12.3873 13.4939V12.0872L12.5805 12.0918L12.7716 12.1064L12.9601 12.1303L13.146 12.1635L13.3282 12.2061L13.5074 12.257L13.6829 12.3167L13.8543 12.3847L14.021 12.4605L14.1835 12.5441L14.3414 12.635L14.494 12.7331L14.6415 12.838L14.7838 12.9502L14.9209 13.0686L15.0517 13.1932L15.1764 13.3241L15.2947 13.4606L15.4069 13.6029L15.5123 13.7509L15.6105 13.9041L15.7013 14.062L15.7849 14.2245L15.8608 14.3917L15.9288 14.5631L15.9885 14.7386L16.0394 14.9177L16.082 15.1L16.1152 15.2859L16.1391 15.4739L16.1536 15.665L16.1583 15.8581H14.7516L14.7485 15.7366L14.7391 15.6172L14.7241 15.4993L14.7033 15.3835L14.6768 15.2698L14.6451 15.1582L14.6083 15.0491L14.5657 14.9421L14.5179 14.8378L14.4655 14.736L14.4083 14.6368L14.3465 14.5407L14.2806 14.4478L14.21 14.358L14.1352 14.2718L14.0563 14.1892L13.9737 14.1103L13.8875 14.0355L13.7977 13.9649L13.7047 13.8984L13.6087 13.8366L13.51 13.7795L13.4077 13.727L13.3033 13.6793L13.1963 13.6367L13.0873 13.5998L12.9757 13.5681L12.8619 13.5417L12.7467 13.5209L12.6288 13.5058L12.5093 13.4965L12.3878 13.4934L12.3873 13.4939ZM8.98657 12.0872H12.3873V13.4939H8.98657V12.0872ZM6.62282 15.8581H5.2161L5.22077 15.665L5.23531 15.4739L5.2592 15.2854L5.29243 15.0995L5.33501 14.9172L5.3859 14.7381L5.44562 14.5626L5.51364 14.3912L5.58946 14.2245L5.67306 14.062L5.76393 13.9041L5.86208 13.7514L5.96749 13.6034L6.07965 13.4617L6.19805 13.3246L6.32267 13.1937L6.45353 13.0691L6.59062 12.9507L6.73238 12.8391L6.88038 12.7337L7.03357 12.6355L7.19143 12.5446L7.35396 12.461L7.52065 12.3852L7.69201 12.3172L7.86752 12.2575L8.04667 12.2066L8.22894 12.164L8.41484 12.1308L8.60334 12.1069L8.79392 12.0924L8.98709 12.0877V13.4944L8.86558 13.4975L8.74614 13.5069L8.62827 13.5219L8.51299 13.5427L8.39926 13.5692L8.28762 13.6009L8.17857 13.6377L8.0716 13.6803L7.96723 13.7281L7.86493 13.7805L7.76575 13.8376L7.66968 13.8994L7.57725 13.9654L7.48741 14.036L7.40121 14.1108L7.31865 14.1897L7.23972 14.2723L7.16494 14.3585L7.09432 14.4483L7.02837 14.5413L6.96658 14.6373L6.90946 14.736L6.85701 14.8383L6.80924 14.9427L6.76666 15.0496L6.72979 15.1587L6.69811 15.2703L6.67163 15.384L6.65086 15.4993L6.6358 15.6172L6.62645 15.7366L6.62334 15.8581H6.62282ZM5.2161 17.148V15.8581H6.62282V17.148H5.2161ZM6.62282 17.148C6.62282 17.5365 6.30762 17.8517 5.9192 17.8517C5.53078 17.8517 5.21558 17.5365 5.21558 17.148H6.6223H6.62282Z" fill="#003C5F"/>
<path fill-rule="evenodd" clip-rule="evenodd" d="M25.29 5.97708V11.9071C25.29 13.0478 26.0619 14.2568 27.2504 15.3329C28.3366 16.3163 29.6523 17.0789 30.6591 17.4604C31.6659 17.0789 32.9818 16.3163 34.068 15.3329C35.2567 14.2568 36.0287 13.0478 36.0287 11.9071V5.97722C34.2279 5.16343 32.4414 4.78121 30.6632 4.7917L30.6549 4.79175C28.8767 4.78125 27.0902 5.16303 25.29 5.97708ZM24.5867 5.53038L24.2787 4.898C26.3916 3.86923 28.5206 3.37302 30.6591 3.38498C32.7977 3.37302 34.9266 3.8698 37.0398 4.89791C37.2818 5.01566 37.4354 5.26122 37.4354 5.53038V11.9071C37.4354 13.651 36.297 15.2126 35.0122 16.3758C33.7078 17.5566 32.1063 18.4619 30.8838 18.874C30.738 18.9231 30.5802 18.9231 30.4344 18.874C29.2118 18.4619 27.6105 17.5566 26.3063 16.3757C25.0216 15.2126 23.8833 13.651 23.8833 11.9071V5.53038H24.5867Z" fill="#003C5F"/>
<path fill-rule="evenodd" clip-rule="evenodd" d="M34.1791 8.3647C34.4538 8.63938 34.4538 9.08472 34.1791 9.3594L30.9752 12.5633C30.8433 12.6953 30.6644 12.7694 30.4778 12.7694C30.2912 12.7693 30.1123 12.6952 29.9804 12.5633L28.339 10.9213C28.0644 10.6466 28.0644 10.2012 28.3391 9.92661C28.6139 9.65197 29.0592 9.65204 29.3338 9.92677L30.4779 11.0712L33.1844 8.3647C33.4591 8.09002 33.9045 8.09002 34.1791 8.3647Z" fill="#003C5F"/>
</svg>
