<svg width="14" height="14" viewBox="0 0 14 14" fill="none" xmlns="http://www.w3.org/2000/svg">
<path fill-rule="evenodd" clip-rule="evenodd" d="M7.76161 1.4879C8.35196 1.19894 8.86695 1.10376 9.66588 1.10377C11.7104 1.11224 13.2237 2.83654 13.2237 5.033C13.2237 6.70952 12.2889 8.32899 10.5477 9.89498C9.6338 10.717 8.46691 11.5304 7.63122 11.9632L7.15309 12.2108L6.67495 11.9632C5.83926 11.5304 4.67237 10.717 3.75845 9.89498C2.01729 8.32899 1.08252 6.70952 1.08252 5.033C1.08252 2.81305 2.58164 1.10376 4.64459 1.10376C5.41485 1.10376 5.95626 1.20794 6.55807 1.50559C6.76759 1.60923 6.96445 1.73215 7.14755 1.87404C7.33799 1.72373 7.54304 1.59489 7.76161 1.4879Z" fill="#00AAEC"/>
</svg>
