<svg width="13" height="12" viewBox="0 0 13 12" fill="none" xmlns="http://www.w3.org/2000/svg">
<path fill-rule="evenodd" clip-rule="evenodd" d="M7.31776 0.487901C7.90811 0.198937 8.4231 0.103759 9.22203 0.103769C11.2666 0.112236 12.7798 1.83654 12.7798 4.033C12.7798 5.70952 11.845 7.32899 10.1039 8.89498C9.18995 9.71697 8.02306 10.5304 7.18738 10.9632L6.70924 11.2108L6.2311 10.9632C5.39541 10.5304 4.22853 9.71697 3.3146 8.89498C1.57345 7.32899 0.638672 5.70952 0.638672 4.033C0.638672 1.81305 2.13779 0.10376 4.20074 0.10376C4.971 0.10376 5.51241 0.207939 6.11422 0.505595C6.32375 0.609227 6.52061 0.732152 6.7037 0.874038C6.89414 0.723726 7.09919 0.594885 7.31776 0.487901Z" fill="#DADADA"/>
</svg>
