<svg width="15" height="15" viewBox="0 0 15 15" fill="none" xmlns="http://www.w3.org/2000/svg">
<path fill-rule="evenodd" clip-rule="evenodd" d="M7.5 14.375C3.70304 14.375 0.625 11.297 0.625 7.5C0.625 3.70304 3.70304 0.625 7.5 0.625C11.297 0.625 14.375 3.70304 14.375 7.5C14.375 11.297 11.297 14.375 7.5 14.375ZM7.5 13.125C10.6066 13.125 13.125 10.6066 13.125 7.50002C13.125 4.39342 10.6066 1.87502 7.5 1.87502C4.3934 1.87502 1.875 4.39342 1.875 7.50002C1.875 10.6066 4.3934 13.125 7.5 13.125ZM10.625 6.87502H8.125V3.75002H6.875V8.12502H10.625V6.87502Z" fill="#008DD2"/>
</svg>
