<svg width="16" height="16" viewBox="0 0 16 16" fill="none" xmlns="http://www.w3.org/2000/svg">
<path fill-rule="evenodd" clip-rule="evenodd" d="M8.00008 15.3334C3.94999 15.3334 0.666748 12.0502 0.666748 8.00008C0.666748 3.94999 3.94999 0.666748 8.00008 0.666748C12.0502 0.666748 15.3334 3.94999 15.3334 8.00008C15.3334 12.0502 12.0502 15.3334 8.00008 15.3334ZM12.9331 11.4165C13.6058 10.447 14.0001 9.26956 14.0001 8.00008C14.0001 4.68637 11.3138 2.00008 8.00008 2.00008C4.68637 2.00008 2.00008 4.68637 2.00008 8.00008C2.00008 9.26956 2.39434 10.447 3.06708 11.4165C3.81738 10.4255 5.58048 10.0001 8.00008 10.0001C10.4197 10.0001 12.1828 10.4255 12.9331 11.4165ZM11.9765 12.4933C11.7814 11.7916 10.3797 11.3334 8.00008 11.3334C5.62049 11.3334 4.21875 11.7916 4.02362 12.4933C5.08228 13.4309 6.47471 14.0001 8.00008 14.0001C9.52545 14.0001 10.9179 13.4309 11.9765 12.4933ZM8.00008 4.00008C6.38615 4.00008 5.33342 5.17059 5.33342 6.66675C5.33342 8.95166 6.50732 10.0001 8.00008 10.0001C9.47881 10.0001 10.6667 8.98649 10.6667 6.80008C10.6667 5.28113 9.60954 4.00008 8.00008 4.00008ZM6.66675 6.66675C6.66675 8.17959 7.21222 8.66675 8.00008 8.66675C8.78522 8.66675 9.33341 8.19901 9.33341 6.80008C9.33341 5.96703 8.81052 5.33342 8.00008 5.33342C7.15591 5.33342 6.66675 5.8773 6.66675 6.66675Z" fill="black"/>
</svg>
