<svg width="41" height="123" viewBox="0 0 41 123" fill="none" xmlns="http://www.w3.org/2000/svg">
<path d="M1.56418 1.99999V0.499992H0.0641785V1.99999H1.56418ZM1.56418 9.81999H0.0641785V11.32H1.56418V9.81999ZM30.6342 9.81999H32.1342V8.31999H30.6342V9.81999ZM30.6342 121H29.1342V122.5H30.6342V121ZM39.3042 121V122.5H40.8042V121H39.3042ZM39.3042 1.99999H40.8042V0.499992H39.3042V1.99999ZM0.0641785 1.99999V9.81999H3.06418V1.99999H0.0641785ZM1.56418 11.32H30.6342V8.31999H1.56418V11.32ZM29.1342 9.81999V121H32.1342V9.81999H29.1342ZM30.6342 122.5H39.3042V119.5H30.6342V122.5ZM40.8042 121V1.99999H37.8042V121H40.8042ZM39.3042 0.499992H1.56418V3.49999H39.3042V0.499992Z" fill="white"/>
</svg>
