<svg width="90" height="124" viewBox="0 0 90 124" fill="none" xmlns="http://www.w3.org/2000/svg">
<path d="M87.8445 114.18H89.3445V112.68H87.8445V114.18ZM87.8445 122V123.5H89.3445V122H87.8445ZM6.07449 122H4.57449V123.5H6.07449V122ZM6.07449 115.88L5.01743 114.816L4.57449 115.256V115.88H6.07449ZM56.3945 65.9L57.4516 66.9643L57.4552 66.9607L56.3945 65.9ZM69.6545 49.07L68.3129 48.3992L68.3096 48.4058L68.3063 48.4124L69.6545 49.07ZM65.4045 16.6L64.4367 17.746L64.4429 17.7513L64.4492 17.7564L65.4045 16.6ZM23.4145 13.54L22.8574 12.1472L22.8476 12.1512L23.4145 13.54ZM8.96449 23.91L7.96795 25.0311L9.09591 26.0337L10.0917 24.8997L8.96449 23.91ZM2.84449 18.47L1.71258 17.4857L0.738985 18.6054L1.84795 19.5911L2.84449 18.47ZM20.0145 6.4L19.4535 5.00881L19.4457 5.01204L20.0145 6.4ZM71.6945 10.65L70.7436 11.8101L70.7436 11.8101L71.6945 10.65ZM77.9845 51.11L76.6374 50.4502L76.6374 50.4502L77.9845 51.11ZM62.6845 70.49L61.6319 69.4213L61.6259 69.4273L62.6845 70.49ZM18.8245 114.18L17.7659 113.117L15.1932 115.68H18.8245V114.18ZM86.3445 114.18V122H89.3445V114.18H86.3445ZM87.8445 120.5H6.07449V123.5H87.8445V120.5ZM7.57449 122V115.88H4.57449V122H7.57449ZM7.13155 116.944L57.4516 66.9642L55.3374 64.8357L5.01743 114.816L7.13155 116.944ZM57.4552 66.9607C64.0679 60.3479 68.6268 54.5981 71.0026 49.7276L68.3063 48.4124C66.1489 52.8352 61.8678 58.3054 55.3338 64.8393L57.4552 66.9607ZM70.9961 49.7408C73.4731 44.7869 74.7245 39.685 74.7245 34.45H71.7245C71.7245 39.1883 70.5959 43.8331 68.3129 48.3992L70.9961 49.7408ZM74.7245 34.45C74.7245 26.4713 71.9632 20.0724 66.3598 15.4436L64.4492 17.7564C69.2724 21.7409 71.7245 27.2421 71.7245 34.45H74.7245ZM66.3723 15.454C60.9009 10.8337 53.0765 8.63999 43.1345 8.63999V11.64C52.6858 11.64 59.7081 13.753 64.4367 17.746L66.3723 15.454ZM43.1345 8.63999C35.5054 8.63999 28.7363 9.79572 22.8574 12.1473L23.9716 14.9327C29.426 12.7509 35.8036 11.64 43.1345 11.64V8.63999ZM22.8476 12.1512C17.0724 14.5085 12.0658 18.1046 7.83733 22.9203L10.0917 24.8997C14.0232 20.4221 18.6499 17.1048 23.9813 14.9288L22.8476 12.1512ZM9.96104 22.7889L3.84104 17.3489L1.84795 19.5911L7.96795 25.0311L9.96104 22.7889ZM3.9764 19.4543C8.34383 14.4317 13.8686 10.5399 20.5833 7.78796L19.4457 5.01204C12.3337 7.92677 6.41182 12.0816 1.71258 17.4857L3.9764 19.4543ZM20.5754 7.79116C27.3967 5.04065 35.1351 3.64999 43.8145 3.64999V0.649993C34.8139 0.649993 26.6856 2.09267 19.4535 5.00884L20.5754 7.79116ZM43.8145 3.64999C55.2484 3.64999 64.1711 6.42276 70.7436 11.8101L72.6454 9.48991C65.3913 3.54389 55.7273 0.649993 43.8145 0.649993V3.64999ZM70.7436 11.8101C77.2796 17.1675 80.5645 24.3762 80.5645 33.6H83.5645C83.5645 23.5571 79.936 15.4658 72.6454 9.48991L70.7436 11.8101ZM80.5645 33.6C80.5645 39.4888 79.2579 45.1 76.6374 50.4502L79.3316 51.7698C82.1511 46.0133 83.5645 39.9512 83.5645 33.6H80.5645ZM76.6374 50.4502C74.026 55.7817 69.0633 62.1025 61.632 69.4213L63.737 71.5587C71.2657 64.1441 76.503 57.5449 79.3316 51.7698L76.6374 50.4502ZM61.6259 69.4273L17.7659 113.117L19.8831 115.243L63.7431 71.5527L61.6259 69.4273ZM18.8245 115.68H87.8445V112.68H18.8245V115.68Z" fill="white"/>
</svg>
