<svg width="88" height="124" viewBox="0 0 88 124" fill="none" xmlns="http://www.w3.org/2000/svg">
<path d="M46.1625 53.85L44.9802 52.927L43.1474 55.2746L46.1248 55.3495L46.1625 53.85ZM81.8625 8.12L83.0449 9.04303L83.3625 8.63617V8.12H81.8625ZM81.8625 1.99999H83.3625V0.499992H81.8625V1.99999ZM7.23254 1.99999V0.499992H5.73254V1.99999H7.23254ZM7.23254 9.81999H5.73254V11.32H7.23254V9.81999ZM70.6425 9.81999L71.8246 10.7434L73.7176 8.31999H70.6425V9.81999ZM35.4525 54.87L34.2704 53.9466L33.9525 54.3536V54.87H35.4525ZM35.4525 61.16H33.9525V62.66H35.4525V61.16ZM7.23254 99.24L8.35998 98.2506L7.06962 96.7802L5.98446 98.4079L7.23254 99.24ZM2.81254 105.87L1.56446 105.038L0.927437 105.993L1.68367 106.858L2.81254 105.87ZM47.3449 54.773L83.0449 9.04303L80.6802 7.19695L44.9802 52.927L47.3449 54.773ZM83.3625 8.12V1.99999H80.3625V8.12H83.3625ZM81.8625 0.499992H7.23254V3.49999H81.8625V0.499992ZM5.73254 1.99999V9.81999H8.73254V1.99999H5.73254ZM7.23254 11.32H70.6425V8.31999H7.23254V11.32ZM69.4604 8.89661L34.2704 53.9466L36.6346 55.7934L71.8246 10.7434L69.4604 8.89661ZM33.9525 54.87V61.16H36.9525V54.87H33.9525ZM35.4525 62.66H42.9325V59.66H35.4525V62.66ZM42.9325 62.66C54.6439 62.66 62.9271 65.2152 68.2563 69.5104C73.5348 73.7647 76.1125 79.8859 76.1125 87.51H79.1125C79.1125 79.1541 76.2503 72.1003 70.1388 67.1746C64.078 62.2897 55.0212 59.66 42.9325 59.66V62.66ZM76.1125 87.51C76.1125 95.2062 73.4151 101.342 68.2841 105.585C63.1147 109.86 55.2955 112.36 44.8025 112.36V115.36C55.7296 115.36 64.3154 112.76 70.1959 107.897C76.115 103.003 79.1125 95.9638 79.1125 87.51H76.1125ZM44.8025 112.36C28.8235 112.36 15.3303 106.194 8.35998 98.2506L6.1051 100.229C13.7548 108.946 28.1416 115.36 44.8025 115.36V112.36ZM5.98446 98.4079L1.56446 105.038L4.06062 106.702L8.48061 100.072L5.98446 98.4079ZM1.68367 106.858C10.3765 116.792 26.9945 123.35 44.8025 123.35V120.35C27.5905 120.35 11.9086 113.988 3.9414 104.882L1.68367 106.858ZM44.8025 123.35C58.7454 123.35 69.5444 119.624 76.8793 113.204C84.2328 106.767 87.9525 97.7508 87.9525 87.51H84.9525C84.9525 96.9892 81.5322 105.143 74.9033 110.946C68.2557 116.766 58.2297 120.35 44.8025 120.35V123.35ZM87.9525 87.51C87.9525 77.4584 84.5009 68.7776 77.4363 62.5428C70.3988 56.3319 59.9449 52.6962 46.2003 52.3505L46.1248 55.3495C59.4102 55.6837 69.1013 59.188 75.4512 64.7922C81.7742 70.3724 84.9525 78.1816 84.9525 87.51H87.9525Z" fill="white"/>
</svg>
