<svg width="105" height="123" viewBox="0 0 105 123" fill="none" xmlns="http://www.w3.org/2000/svg">
<path d="M103.015 80.37H104.515V78.87H103.015V80.37ZM78.0248 80.37H76.5248V81.87H78.0248V80.37ZM78.0248 51.3H79.5248V49.8H78.0248V51.3ZM69.6948 51.3V49.8H68.1948V51.3H69.6948ZM69.6948 80.37V81.87H71.1948V80.37H69.6948ZM12.5748 80.37L11.4087 79.4265L9.4316 81.87H12.5748V80.37ZM75.9848 1.99999L77.1509 2.9435L79.1279 0.499992H75.9848V1.99999ZM66.2948 1.99999V0.499992H65.5796L65.1293 1.05569L66.2948 1.99999ZM1.69477 81.73L0.529305 80.7857L0.194767 81.1986V81.73H1.69477ZM1.69477 88.02H0.194767V89.52H1.69477V88.02ZM69.5248 88.02H71.0248V86.52H69.5248V88.02ZM69.5248 121H68.0248V122.5H69.5248V121ZM78.0248 121V122.5H79.5248V121H78.0248ZM78.0248 88.02V86.52H76.5248V88.02H78.0248ZM103.015 88.02V89.52H104.515V88.02H103.015ZM103.015 78.87H78.0248V81.87H103.015V78.87ZM79.5248 80.37V51.3H76.5248V80.37H79.5248ZM78.0248 49.8H69.6948V52.8H78.0248V49.8ZM68.1948 51.3V80.37H71.1948V51.3H68.1948ZM69.6948 78.87H12.5748V81.87H69.6948V78.87ZM13.7409 81.3135L77.1509 2.9435L74.8187 1.05648L11.4087 79.4265L13.7409 81.3135ZM75.9848 0.499992H66.2948V3.49999H75.9848V0.499992ZM65.1293 1.05569L0.529305 80.7857L2.86023 82.6743L67.4602 2.94429L65.1293 1.05569ZM0.194767 81.73V88.02H3.19477V81.73H0.194767ZM1.69477 89.52H69.5248V86.52H1.69477V89.52ZM68.0248 88.02V121H71.0248V88.02H68.0248ZM69.5248 122.5H78.0248V119.5H69.5248V122.5ZM79.5248 121V88.02H76.5248V121H79.5248ZM78.0248 89.52H103.015V86.52H78.0248V89.52ZM104.515 88.02V80.37H101.515V88.02H104.515Z" fill="white"/>
</svg>
