<svg width="87" height="124" viewBox="0 0 87 124" fill="none" xmlns="http://www.w3.org/2000/svg">
<path d="M19.0225 51.81L17.5314 51.647L17.3496 53.31H19.0225V51.81ZM23.6125 9.81999V8.31999H22.2676L22.1214 9.657L23.6125 9.81999ZM79.3725 9.81999V11.32H80.8725V9.81999H79.3725ZM79.3725 1.99999H80.8725V0.499992H79.3725V1.99999ZM16.3025 1.99999V0.499992H14.9573L14.8114 1.83724L16.3025 1.99999ZM10.0125 59.63L8.5214 59.4672L8.33992 61.13H10.0125V59.63ZM6.44254 99.24L7.58142 98.2638L6.29281 96.7604L5.19447 98.4079L6.44254 99.24ZM2.02254 105.87L0.774464 105.038L0.13744 105.993L0.893673 106.858L2.02254 105.87ZM36.0225 50.31H19.0225V53.31H36.0225V50.31ZM20.5137 51.973L25.1037 9.98299L22.1214 9.657L17.5314 51.647L20.5137 51.973ZM23.6125 11.32H79.3725V8.31999H23.6125V11.32ZM80.8725 9.81999V1.99999H77.8725V9.81999H80.8725ZM79.3725 0.499992H16.3025V3.49999H79.3725V0.499992ZM14.8114 1.83724L8.5214 59.4672L11.5037 59.7927L17.7937 2.16274L14.8114 1.83724ZM10.0125 61.13H34.1525V58.13H10.0125V61.13ZM34.1525 61.13C50.2019 61.13 60.4845 63.718 66.7304 68.1622C72.8576 72.5219 75.3225 78.8367 75.3225 87H78.3225C78.3225 78.1633 75.6025 70.7931 68.4697 65.7178C61.4556 60.727 50.4032 58.13 34.1525 58.13V61.13ZM75.3225 87C75.3225 94.5288 72.6648 100.803 67.4969 105.218C62.3016 109.657 54.4007 112.36 43.6725 112.36V115.36C54.8744 115.36 63.5485 112.538 69.4457 107.499C75.3703 102.437 78.3225 95.2812 78.3225 87H75.3225ZM43.6725 112.36C28.0282 112.36 14.376 106.191 7.58142 98.2638L5.30365 100.216C12.789 108.949 27.3569 115.36 43.6725 115.36V112.36ZM5.19447 98.4079L0.774464 105.038L3.27061 106.702L7.69062 100.072L5.19447 98.4079ZM0.893673 106.858C9.58528 116.791 26.2021 123.35 43.8425 123.35V120.35C26.803 120.35 11.1198 113.989 3.15141 104.882L0.893673 106.858ZM43.8425 123.35C58.051 123.35 68.86 119.448 76.1327 112.823C83.4169 106.186 86.9925 96.9626 86.9925 86.66H83.9925C83.9925 96.2474 80.6832 104.619 74.1124 110.605C67.5301 116.602 57.5141 120.35 43.8425 120.35V123.35ZM86.9925 86.66C86.9925 75.7825 83.5524 66.5753 75.2552 60.1444C67.034 53.7724 54.2734 50.31 36.0225 50.31V53.31C53.9817 53.31 65.9561 56.7326 73.4174 62.5156C80.8026 68.2397 83.9925 76.4575 83.9925 86.66H86.9925Z" fill="white"/>
</svg>
