<svg width="16" height="16" viewBox="0 0 16 16" fill="none" xmlns="http://www.w3.org/2000/svg">
<path fill-rule="evenodd" clip-rule="evenodd" d="M2.66659 1.3335H13.3333C14.0696 1.3335 14.6666 1.93045 14.6666 2.66683V13.3335C14.6666 14.0699 14.0696 14.6668 13.3333 14.6668H2.66659C1.93021 14.6668 1.33325 14.0699 1.33325 13.3335V2.66683C1.33325 1.93045 1.93021 1.3335 2.66659 1.3335ZM2.66659 2.66683V13.3335H13.3333V2.66683H2.66659ZM7.42196 8.00309H8.66658V12.0002H9.99992V8.00309H11.3215V6.66976H9.99992V6.00016C9.99992 5.63197 10.2984 5.3335 10.6666 5.3335H11.3333V4.00016H10.6666C9.56202 4.00016 8.66658 4.89559 8.66658 6.00016V6.66976H7.42196V8.00309Z" fill="#70787C"/>
</svg>
