<svg width="16" height="16" viewBox="0 0 16 16" fill="none" xmlns="http://www.w3.org/2000/svg">
<path fill-rule="evenodd" clip-rule="evenodd" d="M10.6666 1.3335H5.33325C3.12411 1.3335 1.33325 3.12436 1.33325 5.3335V10.6668C1.33325 12.876 3.12411 14.6668 5.33325 14.6668H10.6666C12.8757 14.6668 14.6666 12.876 14.6666 10.6668V5.3335C14.6666 3.12436 12.8757 1.3335 10.6666 1.3335ZM2.66659 5.3335C2.66659 3.86074 3.86049 2.66683 5.33325 2.66683H10.6666C12.1393 2.66683 13.3333 3.86074 13.3333 5.3335V10.6668C13.3333 12.1396 12.1393 13.3335 10.6666 13.3335H5.33325C3.86049 13.3335 2.66659 12.1396 2.66659 10.6668V5.3335ZM7.99992 11.3335C6.15897 11.3335 4.66658 9.84111 4.66658 8.00016C4.66658 6.15921 6.15897 4.66683 7.99992 4.66683C9.84087 4.66683 11.3333 6.15921 11.3333 8.00016C11.3333 9.84111 9.84087 11.3335 7.99992 11.3335ZM7.99992 10.0002C9.10449 10.0002 9.99992 9.10473 9.99992 8.00016C9.99992 6.89559 9.10449 6.00016 7.99992 6.00016C6.89535 6.00016 5.99992 6.89559 5.99992 8.00016C5.99992 9.10473 6.89535 10.0002 7.99992 10.0002ZM11.9999 4.66683C11.9999 5.03502 11.7014 5.3335 11.3333 5.3335C10.9651 5.3335 10.6666 5.03502 10.6666 4.66683C10.6666 4.29864 10.9651 4.00016 11.3333 4.00016C11.7014 4.00016 11.9999 4.29864 11.9999 4.66683Z" fill="#70787C"/>
</svg>
