<svg width="16" height="16" viewBox="0 0 16 16" fill="none" xmlns="http://www.w3.org/2000/svg">
<path fill-rule="evenodd" clip-rule="evenodd" d="M14.0796 3.00568L15.0228 3.11583L14.5988 3.9655C14.3921 4.37985 14.1851 4.7942 13.9779 5.20855C13.9534 5.29631 13.9102 5.37324 13.8464 5.47341C13.8197 5.51526 13.7285 5.6484 13.7243 5.65479C13.7002 5.69088 13.6824 5.71935 13.6696 5.74215V7.33451C13.6696 11.4092 9.72627 13.9985 6.00228 13.9985C5.24026 13.9985 4.6613 13.9619 3.99835 13.8173C2.90735 13.5792 2.09543 13.1059 1.7239 12.2788L1.34139 11.4273L2.27098 11.3418C3.11192 11.2645 3.84104 11.1042 4.40098 10.8897C2.86376 10.6425 2.00232 9.96735 2.00232 8.69942V8.03275H2.66899C2.81546 8.03275 2.94754 8.02087 3.06561 7.99906C1.91192 7.30926 1.33407 6.20269 1.33407 4.66784C1.33394 4.60243 1.33394 4.60243 1.33355 4.53248C1.32921 3.75885 1.37077 3.34547 1.58255 2.81789C1.71828 2.47977 1.91447 2.16675 2.17852 1.87994L2.68159 1.3335L3.1707 1.89247C4.78255 3.73457 6.37589 4.85213 8.0027 4.98731C8.00965 3.28753 9.29428 2.00118 11.0028 2.00118C11.7993 2.00118 12.5218 2.30351 13.0896 2.84865C13.4003 2.9125 13.7304 2.96489 14.0796 3.00568ZM12.6057 4.10817L12.4013 4.06189L12.2602 3.90701C11.9189 3.53253 11.4905 3.33451 11.0028 3.33451C10.0275 3.33451 9.33601 4.02943 9.33601 5.00118C9.33601 5.15999 9.3319 5.25977 9.31212 5.39093C9.23318 5.91427 8.93963 6.33451 8.33599 6.33451C6.3373 6.33451 4.53416 5.26377 2.77585 3.43501C2.68521 3.71057 2.66389 3.99381 2.66686 4.52501C2.66727 4.59605 2.66727 4.59605 2.66741 4.66784C2.66741 6.03318 3.22055 6.78001 4.53023 7.19629L4.99496 7.344V7.83163C4.99496 8.42296 4.43474 8.97959 3.61505 9.22892C3.9908 9.514 4.75926 9.66784 6.00252 9.66784H6.66919V10.3345C6.66919 11.2897 5.57167 12.0375 3.91376 12.4281C4.45444 12.5937 5.17436 12.6651 6.00228 12.6651C9.07856 12.6651 12.3363 10.526 12.3363 7.33451V5.66784C12.3363 5.47199 12.393 5.30198 12.4874 5.12522C12.5242 5.05611 12.5648 4.99022 12.6149 4.91508C12.6244 4.90093 12.6594 4.84967 12.6872 4.80869L12.74 4.70302C12.8256 4.53179 12.9112 4.36057 12.9968 4.18934C12.8638 4.16416 12.7334 4.1371 12.6057 4.10817Z" fill="#70787C"/>
</svg>
