<svg width="53" height="53" viewBox="0 0 53 53" fill="none" xmlns="http://www.w3.org/2000/svg">
<circle cx="26.5" cy="26.5" r="26.5" fill="#F1F1F1"/>
<path d="M35.971 19.7726C35.4232 19.7726 34.9792 19.3258 34.9792 18.7752C34.9792 18.2243 35.4235 17.7778 35.971 17.7778C36.9412 17.7778 37.8252 18.1786 38.4679 18.824L38.4697 18.8221C39.1102 19.4662 39.5082 20.3561 39.5082 21.3351V22.7178C39.5082 23.6968 39.1102 24.5864 38.4697 25.2308L38.4064 25.2892C37.7696 25.8991 36.9106 26.2751 35.971 26.2751C35.4232 26.2751 34.9792 25.8283 34.9792 25.2777C34.9792 24.7268 35.4235 24.2803 35.971 24.2803C36.3798 24.2803 36.7518 24.1216 37.028 23.8627L37.0673 23.8208C37.3491 23.5374 37.5246 23.1469 37.5246 22.7181V21.3354C37.5246 20.907 37.3494 20.5164 37.0673 20.2327V20.229C36.788 19.9478 36.3996 19.7732 35.971 19.7732V19.7726Z" fill="#22B0F5" stroke="#F1F1F1" stroke-width="0.6"/>
<path d="M40.1699 42.3505C40.1699 42.9014 39.7256 43.3479 39.1781 43.3479C38.6303 43.3479 38.1863 42.9011 38.1863 42.3505V40.6373C38.1863 39.3432 37.844 38.1311 37.2467 37.0884C36.6241 36.0018 35.725 35.0917 34.6476 34.4573C34.1771 34.1798 34.0192 33.5711 34.2951 33.0976C34.571 32.6244 35.1763 32.4656 35.6472 32.7431C37.0187 33.5506 38.1647 34.7114 38.9593 36.0987C39.729 37.4423 40.1702 38.9933 40.1702 40.637V42.3502L40.1699 42.3505ZM14.9836 42.3505C14.9836 42.9014 14.5393 43.3479 13.9918 43.3479C13.444 43.3479 13 42.9011 13 42.3505V40.6373C13 38.1218 14.023 35.835 15.6708 34.178C17.3185 32.5209 19.5926 31.4922 22.094 31.4922H28.5225C29.0703 31.4922 29.5143 31.939 29.5143 32.4896C29.5143 33.0404 29.07 33.4869 28.5225 33.4869H22.094C20.1398 33.4869 18.3619 34.2917 17.0732 35.5879C15.7842 36.8842 14.9839 38.672 14.9839 40.637V42.3502L14.9836 42.3505Z" fill="#374148" stroke="#F1F1F1" stroke-width="0.6"/>
<path d="M33.0803 21.7481C33.0803 19.9221 32.3533 18.2716 31.178 17.0794C30.0036 15.8885 28.3796 15.1515 26.5845 15.1515C24.7899 15.1515 23.1653 15.8885 21.9909 17.0794C20.8156 18.2713 20.0886 19.9218 20.0886 21.7478C20.0886 23.5735 20.8156 25.2237 21.9909 26.4156C23.1653 27.6065 24.7896 28.3435 26.5845 28.3435C28.3796 28.3435 30.0036 27.6065 31.178 26.4156C32.3533 25.2237 33.0803 23.5735 33.0803 21.7475V21.7481ZM32.5804 15.6769C34.1148 17.2332 35.0639 19.3802 35.0639 21.7481C35.0639 24.1157 34.1144 26.263 32.5804 27.8188C31.0451 29.3757 28.9252 30.3389 26.5845 30.3389C24.2443 30.3389 22.1241 29.3757 20.5885 27.8188C19.0541 26.2627 18.105 24.116 18.105 21.7481C18.105 19.3799 19.0541 17.2332 20.5885 15.6769C22.1241 14.1199 24.244 13.1567 26.5845 13.1567C28.9252 13.1567 31.0451 14.1199 32.5804 15.6769Z" fill="#374148" stroke="#F1F1F1" stroke-width="0.6"/>
<path d="M37.5772 15.5578C37.8402 16.0397 37.6653 16.6453 37.1858 16.9097C36.7066 17.1741 36.1044 16.9983 35.8414 16.516C34.9071 14.8115 33.5535 13.4304 31.9536 12.4762C30.3556 11.523 28.5083 10.9947 26.5843 10.9947C24.6723 10.9947 22.8377 11.5139 21.2492 12.4532C19.6596 13.3931 18.309 14.7571 17.3667 16.4449C17.0991 16.9246 16.4954 17.0955 16.0186 16.8264C15.5416 16.5574 15.3716 15.9502 15.6392 15.4708C16.7534 13.4754 18.3572 11.8585 20.25 10.7393C22.1443 9.61924 24.3229 9 26.5846 9C28.866 9 31.0601 9.62794 32.9612 10.762C34.8611 11.8955 36.4683 13.5348 37.5772 15.5575V15.5578Z" fill="#22B0F5" stroke="#F1F1F1" stroke-width="0.6"/>
<path d="M34.96 31.2553C34.5537 31.6232 33.9271 31.5899 33.5613 31.1813C33.1955 30.7727 33.2285 30.1426 33.6348 29.7747C34.0204 29.4258 34.3807 29.048 34.7122 28.6456C35.0533 28.2318 35.3567 27.8052 35.6191 27.3708C35.9015 26.9019 36.5086 26.7519 36.9748 27.0355C37.4411 27.3195 37.5903 27.9301 37.3082 28.3989C36.9792 28.9436 36.6214 29.451 36.2385 29.9155C35.8465 30.3915 35.4188 30.8395 34.96 31.255V31.2553Z" fill="#22B0F5" stroke="#F1F1F1" stroke-width="0.6"/>
<path d="M32.1736 33.1624C31.6861 33.4075 31.0926 33.2087 30.8488 32.7181C30.605 32.2278 30.8027 31.6309 31.2906 31.3857L31.5257 31.2633V31.2596L31.7627 31.1338C32.2376 30.8647 32.8398 31.034 33.1071 31.5116C33.3746 31.9891 33.2062 32.5947 32.7313 32.8635L32.4554 33.0204L32.4539 33.0173L32.174 33.1624H32.1736Z" fill="#22B0F5" stroke="#F1F1F1" stroke-width="0.6"/>
<path d="M17.1985 17.777C17.7463 17.777 18.1903 18.2238 18.1903 18.7744C18.1903 19.3252 17.746 19.7717 17.1985 19.7717C16.77 19.7717 16.3816 19.9464 16.1023 20.2275V20.2313C15.8205 20.5146 15.645 20.9052 15.645 21.334V22.7166C15.645 23.1451 15.8202 23.5357 16.1023 23.8193L16.1415 23.8613C16.4177 24.1201 16.7897 24.2789 17.1985 24.2789C17.7463 24.2789 18.1903 24.7257 18.1903 25.2762C18.1903 25.8271 17.746 26.2736 17.1985 26.2736C16.2589 26.2736 15.4 25.8977 14.7632 25.2877L14.6998 25.2293C14.0593 24.5852 13.6614 23.6954 13.6614 22.7163V21.3337C13.6614 20.3546 14.0593 19.4651 14.6998 18.8207L14.7017 18.8225C15.3444 18.1772 16.2283 17.7764 17.1985 17.7764V17.777Z" fill="#22B0F5" stroke="#F1F1F1" stroke-width="0.6"/>
<path d="M27.8365 41.9878C27.8365 42.722 27.2442 43.3176 26.5141 43.3176C25.784 43.3176 25.1917 42.722 25.1917 41.9878V37.8957C25.1917 37.1615 25.784 36.5659 26.5141 36.5659C27.2442 36.5659 27.8365 37.1615 27.8365 37.8957V41.9878Z" fill="#374148" stroke="#F1F1F1" stroke-width="0.6"/>
<path d="M25.7848 36.1564C25.237 36.1564 24.793 35.7096 24.793 35.159C24.793 34.6081 25.2373 34.1616 25.7848 34.1616H27.3463C27.8941 34.1616 28.3381 34.6084 28.3381 35.159C28.3381 35.7099 27.8938 36.1564 27.3463 36.1564H25.7848Z" fill="#374148" stroke="#F1F1F1" stroke-width="0.6"/>
</svg>
