<svg width="53" height="53" viewBox="0 0 53 53" fill="none" xmlns="http://www.w3.org/2000/svg">
<circle cx="26.5" cy="26.5" r="26.5" fill="#F1F1F1"/>
<path d="M13.7962 13.1025L26.6715 10.0271C26.8312 9.98886 26.9916 9.99228 27.1405 10.0299L40.037 13.1102C40.4931 13.2187 40.8002 13.6285 40.7999 14.0803L40.8002 27.7101C40.8002 30.6572 39.175 33.4545 36.913 35.8143C34.0281 38.8242 30.0594 41.156 27.2137 42.1205C27.0021 42.1916 26.7827 42.1869 26.5862 42.1205C23.7405 41.156 19.7718 38.8242 16.8869 35.8143C14.6249 33.4542 13 30.6569 13 27.7101V14.0803C13 13.5971 13.342 13.1938 13.7959 13.1025H13.7962ZM26.9001 12.0221L14.9839 14.8682V27.7104C14.9839 30.0774 16.3759 32.4142 18.3128 34.4354C20.8674 37.1007 24.3254 39.1827 26.9001 40.1245C29.4748 39.1827 32.9331 37.1007 35.4874 34.4354C37.4247 32.4142 38.8163 30.0774 38.8163 27.7104V14.8682L26.8998 12.0221H26.9001Z" fill="#374148" stroke="#F1F1F1" stroke-width="0.6"/>
<path d="M17.9513 16.6159L26.6717 14.5329C26.8315 14.4947 26.9918 14.4981 27.1408 14.5357L35.8822 16.6237C36.3383 16.7321 36.6454 17.142 36.6451 17.5937L36.6454 27.1806C36.6454 29.2723 35.5059 31.2435 33.9196 32.8983C31.9271 34.9775 29.1828 36.5889 27.214 37.2563C27.0023 37.3274 26.783 37.3228 26.5865 37.2563C24.6177 36.5892 21.8734 34.9775 19.8808 32.8983C18.2948 31.2435 17.155 29.2726 17.155 27.1806V17.5937C17.155 17.1106 17.4971 16.7073 17.9509 16.6159H17.9513ZM26.9004 16.528L19.139 18.3817V27.1806C19.139 28.6925 20.0452 30.2029 21.3064 31.5187C22.969 33.2534 25.2047 34.6156 26.9004 35.2578C28.596 34.6156 30.8318 33.2534 32.4943 31.5187C33.7556 30.2029 34.6618 28.6925 34.6618 27.1806V18.3817L26.9004 16.528Z" fill="#22B0F5" stroke="#F1F1F1" stroke-width="0.6"/>
</svg>
