<svg width="53" height="53" viewBox="0 0 53 53" fill="none" xmlns="http://www.w3.org/2000/svg">
<circle cx="26.5" cy="26.5" r="26.5" fill="#F1F1F1"/>
<path d="M34.5949 30.2675C34.0731 30.104 33.7817 29.5457 33.9442 29.0209C34.1068 28.4961 34.662 28.2031 35.1839 28.3666C36.0947 28.6527 36.8165 28.9877 37.326 29.3543C38.0252 29.8573 38.3904 30.4548 38.3904 31.1225C38.3904 32.4297 36.8504 33.4768 34.361 34.1131C32.2582 34.6503 29.3696 34.9828 26.1952 34.9828C23.0208 34.9828 20.1322 34.6503 18.0293 34.1131C15.5399 33.4771 14 32.4297 14 31.1225C14 30.4862 14.3331 29.913 14.9742 29.4233C15.442 29.066 16.1016 28.7391 16.9346 28.4567C17.4525 28.2824 18.0126 28.5632 18.186 29.084C18.3593 29.6047 18.08 30.168 17.5622 30.3424C16.9306 30.5564 16.4613 30.7805 16.1674 31.0051C16.0466 31.0974 15.9839 31.1073 15.9839 31.1225C15.9839 31.3963 16.9522 31.7806 18.5175 32.1808C20.4693 32.6795 23.183 32.988 26.1952 32.988C29.2077 32.988 31.9214 32.6795 33.8729 32.1808C35.4381 31.7809 36.4065 31.3963 36.4065 31.1225C36.4065 31.1123 36.3283 31.0822 36.1791 30.975C35.8401 30.7311 35.3065 30.4912 34.5949 30.2678V30.2675Z" fill="#374148" stroke="#F1F1F1" stroke-width="0.6"/>
<path d="M36.6696 35.0888C37.1467 34.8222 37.7486 34.9946 38.014 35.4744C38.2791 35.9541 38.1076 36.5594 37.6306 36.8263C36.5322 37.4399 34.855 37.9352 32.8449 38.2708C30.8835 38.5979 28.5891 38.7816 26.2025 38.7816C23.7984 38.7816 21.4913 38.5958 19.5238 38.2652C17.5102 37.9268 15.8318 37.4253 14.7378 36.8039C14.2629 36.5348 14.0945 35.9296 14.3621 35.452C14.6296 34.9745 15.2315 34.8051 15.7064 35.0742C16.5913 35.5769 18.0466 35.9989 19.8491 36.3018C21.6977 36.6122 23.8914 36.7868 26.2025 36.7868C28.5028 36.7868 30.6861 36.6144 32.5275 36.3074C34.3199 36.0085 35.7736 35.59 36.67 35.0891L36.6696 35.0888Z" fill="#374148" stroke="#F1F1F1" stroke-width="0.6"/>
<path d="M25.9986 11C28.8455 11 31.4241 12.1611 33.2903 14.0375C35.1565 15.9142 36.3109 18.5067 36.3109 21.3702C36.3109 24.2334 35.1562 26.8262 33.2903 28.7026C31.4241 30.5793 28.8458 31.7401 25.9989 31.7401C23.1517 31.7401 20.573 30.579 18.7068 28.7026C16.8406 26.8259 15.6863 24.2334 15.6863 21.3702C15.6863 18.507 16.8409 15.9139 18.7068 14.0375C20.573 12.1611 23.1514 11 25.9989 11H25.9986ZM31.8879 15.4478C30.381 13.9325 28.2986 12.9947 25.9986 12.9947C23.6983 12.9947 21.6158 13.9322 20.1089 15.4475C18.6021 16.9628 17.6696 19.057 17.6696 21.3702C17.6696 23.6828 18.6017 25.777 20.1089 27.2923C21.6158 28.8076 23.6986 29.745 25.9986 29.745C28.2986 29.745 30.3811 28.8076 31.8876 27.2923C33.3945 25.777 34.3269 23.6828 34.3269 21.3702C34.3269 19.057 33.3948 16.9631 31.8879 15.4478Z" fill="#374148" stroke="#F1F1F1" stroke-width="0.6"/>
<path d="M25.0161 15.5443C25.0183 14.9956 25.4623 14.5528 26.0079 14.5547C26.5536 14.5569 26.9939 15.0034 26.992 15.5521L26.9895 15.8715C26.9874 16.4202 26.5434 16.8629 25.9977 16.8611C25.4521 16.8589 25.0118 16.4124 25.0137 15.8637L25.0161 15.5443ZM22.6438 24.4104C22.3444 23.9502 22.4727 23.3325 22.9306 23.0311C23.3882 22.7301 24.0024 22.859 24.3021 23.3195C24.388 23.4515 24.5032 23.5596 24.6361 23.6323C24.7594 23.6998 24.9061 23.7383 25.0665 23.7383H27.0118C27.1928 23.7383 27.3588 23.6628 27.479 23.5419C27.5991 23.4211 27.6742 23.2542 27.6742 23.0721C27.6742 23.0203 27.673 22.9864 27.6705 22.9705C27.6653 22.9364 27.6575 22.9028 27.6477 22.872C27.534 22.5119 26.747 22.4656 25.9588 22.4197C24.6138 22.3407 23.2655 22.2615 22.6061 20.9018C22.5206 20.7291 22.4538 20.5392 22.4078 20.3376C22.363 20.1403 22.3389 19.9411 22.3389 19.7445C22.3389 19.0115 22.6364 18.346 23.1156 17.8644C23.5945 17.3828 24.2567 17.0835 24.9852 17.0835H26.9305C27.4224 17.0835 27.892 17.2128 28.3064 17.439C28.7315 17.6711 29.0924 18.0051 29.3529 18.4062C29.6523 18.8664 29.5241 19.4841 29.0662 19.7855C28.6086 20.0865 27.9943 19.9576 27.6946 19.4971C27.6087 19.3651 27.4935 19.257 27.3606 19.1846C27.237 19.1171 27.0906 19.0786 26.9302 19.0786H24.9849C24.8036 19.0786 24.6379 19.1538 24.5177 19.275C24.3976 19.3958 24.3225 19.5627 24.3225 19.7448C24.3225 19.8026 24.3274 19.8526 24.337 19.8939C24.3469 19.9368 24.3639 19.9834 24.3867 20.0303V20.0343C24.536 20.3432 25.3026 20.3882 26.0673 20.433C27.537 20.5187 29.0044 20.6054 29.5305 22.2721C29.5713 22.4004 29.6022 22.5328 29.6232 22.667C29.6461 22.8161 29.6581 22.9522 29.6581 23.0725C29.6581 23.8048 29.3606 24.4709 28.8814 24.9525C28.4022 25.4345 27.74 25.7337 27.0118 25.7337H25.0665C24.5746 25.7337 24.1046 25.6044 23.6906 25.3782C23.2652 25.1458 22.9046 24.8115 22.6441 24.411L22.6438 24.4104ZM26.9951 27.135C26.9951 27.6858 26.5508 28.1323 26.0033 28.1323C25.4555 28.1323 25.0115 27.6855 25.0115 27.135V26.9209C25.0115 26.37 25.4558 25.9235 26.0033 25.9235C26.5511 25.9235 26.9951 26.3703 26.9951 26.9209V27.135Z" fill="#22B0F5" stroke="#F1F1F1" stroke-width="0.6"/>
<path d="M36.6695 38.8891C37.1465 38.6225 37.7484 38.7949 38.0138 39.2747C38.2789 39.7544 38.1074 40.3597 37.6304 40.6266C36.532 41.2405 34.8549 41.7355 32.8444 42.0711C30.883 42.3982 28.5889 42.5819 26.2021 42.5819C23.7979 42.5819 21.4908 42.3961 19.523 42.0655C17.5094 41.7274 15.831 41.2256 14.7373 40.6042C14.2624 40.3351 14.094 39.7299 14.3616 39.2523C14.6291 38.7747 15.231 38.6054 15.7059 38.8745C16.5905 39.3772 18.0458 39.7995 19.8483 40.1021C21.6969 40.4128 23.8906 40.5871 26.2021 40.5871C28.5024 40.5871 30.6856 40.4147 32.5268 40.1077C34.3194 39.8085 35.7731 39.3903 36.6695 38.8894V38.8891Z" fill="#374148" stroke="#F1F1F1" stroke-width="0.6"/>
</svg>
