<svg width="53" height="53" viewBox="0 0 53 53" fill="none" xmlns="http://www.w3.org/2000/svg">
<circle cx="26.5" cy="26.5" r="26.5" fill="#F1F1F1"/>
<path d="M21.6516 36.9347C21.9123 36.4528 22.5127 36.2751 22.9922 36.5373C23.4714 36.7996 23.6481 37.4033 23.3874 37.8855C23.1825 38.2618 20.9369 42.3849 20.94 42.3864C20.7852 42.6704 20.5581 42.8954 20.285 43.0445L20.2859 43.0461C20.0143 43.1943 19.7032 43.2623 19.38 43.2378L19.3763 43.2375C19.054 43.2123 18.758 43.0967 18.5127 42.91C18.4775 42.8833 18.4447 42.8547 18.4141 42.8245C18.2139 42.6456 18.0585 42.4191 17.964 42.1559L17.1962 40.0313L15.0009 40.5287C14.6842 40.5999 14.3675 40.5775 14.0798 40.4718L14.0764 40.4706C13.7857 40.3643 13.5277 40.1751 13.3327 39.9151C13.3111 39.8865 13.2916 39.857 13.2737 39.8268C13.1149 39.5857 13.0238 39.316 13.004 39.0401C12.9824 38.7337 13.0485 38.4215 13.2042 38.1341L15.6402 33.6586C15.9009 33.1767 16.5013 32.999 16.9808 33.2612C17.46 33.5235 17.6367 34.1272 17.376 34.6094L15.3006 38.4224L17.0543 38.025C17.4566 37.9343 17.8604 37.9998 18.1985 38.1856C18.539 38.373 18.813 38.6803 18.9533 39.0699L19.5663 40.7667L21.6519 36.9347H21.6516Z" fill="#374148" stroke="#F1F1F1" stroke-width="0.6"/>
<path d="M23.0731 23.8722C22.6859 23.4828 22.6859 22.8512 23.0731 22.4619C23.4602 22.0725 24.0884 22.0725 24.4755 22.4619L25.7275 23.7215L28.8382 20.5933C29.2253 20.2039 29.8535 20.2039 30.2406 20.5933C30.6278 20.9826 30.6278 21.6142 30.2406 22.0036L26.4285 25.8368C26.0414 26.2261 25.4132 26.2261 25.0261 25.8368L23.0728 23.8722H23.0731Z" fill="#22B0F5" stroke="#F1F1F1" stroke-width="0.6"/>
<path d="M26.4128 15.2363C28.579 15.2363 30.5407 16.1197 31.9604 17.5477C33.3802 18.9754 34.2589 20.9481 34.2589 23.1265C34.2589 25.3048 33.3805 27.2775 31.9604 28.7052C30.5407 30.1329 28.579 31.0166 26.4128 31.0166C24.2463 31.0166 22.2846 30.1332 20.8649 28.7052C19.4451 27.2775 18.5664 25.3048 18.5664 23.1265C18.5664 20.9481 19.4448 18.9754 20.8649 17.5477C22.2846 16.12 24.2463 15.2363 26.4128 15.2363ZM30.558 18.9577C29.4976 17.891 28.0318 17.2311 26.4128 17.2311C24.7938 17.2311 23.3277 17.891 22.2673 18.9577C21.2066 20.024 20.5503 21.498 20.5503 23.1261C20.5503 24.7543 21.2066 26.2283 22.2673 27.2946C23.328 28.3613 24.7938 29.0212 26.4128 29.0212C28.0318 29.0212 29.4976 28.3613 30.558 27.2946C31.6187 26.2283 32.275 24.7543 32.275 23.1261C32.275 21.498 31.6187 20.024 30.558 18.9577Z" fill="#22B0F5" stroke="#F1F1F1" stroke-width="0.6"/>
<path d="M28.6429 10.9511L28.9667 11.2863C29.1178 11.4429 29.2951 11.5489 29.4836 11.5995C29.6718 11.6502 29.8791 11.6471 30.0901 11.5871L30.5369 11.4594C30.9521 11.341 31.3628 11.3072 31.765 11.3575C32.1661 11.4075 32.5576 11.5424 32.9351 11.7617H32.9391C33.313 11.9789 33.6241 12.2526 33.8701 12.5798C34.1166 12.9079 34.294 13.2845 34.3997 13.7058L34.5134 14.1588C34.5665 14.3717 34.666 14.5516 34.801 14.687L34.8047 14.6908C34.9394 14.8265 35.1183 14.9266 35.33 14.98L35.7805 15.0944C36.1994 15.2006 36.5739 15.379 36.9002 15.6269C37.2255 15.8743 37.498 16.1871 37.7137 16.5631L37.7489 16.6299C37.9461 16.99 38.0687 17.3622 38.1157 17.7435C38.1654 18.148 38.1318 18.5616 38.014 18.9788L37.887 19.4284C37.8271 19.6407 37.8243 19.8491 37.8747 20.0384C37.925 20.2279 38.0304 20.4062 38.1861 20.5579L38.5195 20.8835C38.8266 21.1833 39.0615 21.5257 39.2221 21.9076C39.3837 22.2922 39.4653 22.6993 39.4653 23.1262C39.4653 23.5528 39.3837 23.9601 39.2221 24.3445C39.0615 24.726 38.8269 25.0687 38.5195 25.3686L38.1861 25.6942C38.0304 25.8461 37.925 26.0245 37.8747 26.214C37.8243 26.4032 37.8274 26.6117 37.887 26.8239L38.014 27.2732C38.1318 27.6908 38.1654 28.1037 38.1154 28.5083C38.0656 28.9116 37.9312 29.3052 37.7134 29.6849V29.689C37.4974 30.0649 37.2252 30.3778 36.8999 30.6251C36.5736 30.8731 36.1991 31.0514 35.7802 31.1577L35.3297 31.272C35.118 31.3255 34.9391 31.4255 34.8044 31.5613L34.8007 31.565C34.6657 31.7005 34.5662 31.8804 34.5131 32.0932L34.3994 32.5462C34.2937 32.9676 34.1163 33.3441 33.8698 33.6722C33.6238 33.9994 33.3127 34.2735 32.9388 34.4903L32.8724 34.5258C32.5143 34.724 32.1442 34.8473 31.765 34.8946C31.3628 34.9446 30.9515 34.9107 30.5366 34.7924L30.0895 34.6646C29.8785 34.6044 29.6711 34.6016 29.483 34.6522C29.2945 34.7029 29.1171 34.8088 28.9664 34.9654L28.6426 35.3007C28.3444 35.6095 28.0039 35.8457 27.6242 36.0072C27.2417 36.1697 26.8369 36.2517 26.4124 36.2517C25.9882 36.2517 25.5831 36.1697 25.2009 36.0072C24.8215 35.8457 24.4807 35.6098 24.1825 35.3007L23.8587 34.9654C23.7076 34.8088 23.5303 34.7029 23.3418 34.6522C23.1536 34.6016 22.9463 34.6047 22.7353 34.6646L22.2885 34.7924C21.8733 34.9107 21.4626 34.9446 21.0603 34.8943C20.6593 34.8442 20.2678 34.7091 19.8903 34.49H19.8862C19.5124 34.2728 19.2013 33.9991 18.9553 33.6719C18.7088 33.3438 18.5314 32.9673 18.4257 32.5459L18.312 32.0929C18.2589 31.8801 18.1594 31.7002 18.0244 31.5647L18.0207 31.561C17.886 31.4252 17.7071 31.3252 17.4954 31.2717L17.0449 31.1574C16.626 31.0511 16.2515 30.8728 15.9252 30.6248C15.5999 30.3775 15.3273 30.0646 15.1117 29.6887L15.0765 29.6219C14.8793 29.2617 14.7567 28.8892 14.7097 28.508C14.66 28.1034 14.6936 27.6899 14.8114 27.2726L14.9383 26.823C14.9983 26.6108 15.0011 26.4023 14.9507 26.2131C14.9003 26.0235 14.795 25.8452 14.6393 25.6936L14.3059 25.3679C13.9988 25.0681 13.7639 24.7257 13.6033 24.3439C13.4417 23.9592 13.3601 23.5522 13.3601 23.1253C13.3601 22.6986 13.4417 22.2913 13.6033 21.907C13.7636 21.5254 13.9985 21.1827 14.3059 20.8829L14.6393 20.5572C14.795 20.4053 14.9003 20.227 14.9507 20.0374C15.0011 19.8482 14.998 19.6397 14.9383 19.4275L14.8114 18.9782C14.6936 18.5606 14.66 18.1477 14.71 17.7432C14.7598 17.3399 14.8939 16.9462 15.112 16.5665V16.5625C15.328 16.1865 15.6002 15.8736 15.9255 15.6263C16.2518 15.3784 16.6263 15.2 17.0452 15.0938L17.4957 14.9794C17.7074 14.926 17.8863 14.8259 18.021 14.6901L18.0247 14.6864C18.1597 14.5509 18.2592 14.371 18.3123 14.1582L18.426 13.7052C18.5317 13.2839 18.7091 12.9073 18.9556 12.5792C19.2016 12.252 19.5127 11.978 19.8866 11.7611L19.953 11.7257C20.3111 11.5274 20.6815 11.4041 21.0607 11.3569C21.4629 11.3068 21.8742 11.3407 22.2891 11.4591L22.7362 11.5868C22.9472 11.6471 23.1546 11.6499 23.3427 11.5992C23.5312 11.5486 23.7086 11.4426 23.8593 11.286L24.1831 10.9508C24.4813 10.6419 24.8218 10.4058 25.2015 10.2442C25.5778 10.0845 25.9826 10.0037 26.4133 10.004V10C26.8375 10 27.2426 10.082 27.6248 10.2445C28.0039 10.4058 28.345 10.6419 28.6432 10.9508L28.6429 10.9511ZM27.5485 12.673L27.2247 12.3378C27.1091 12.2181 26.9862 12.1302 26.8576 12.0755C26.7319 12.0221 26.5832 11.9951 26.413 11.9951V11.991C26.2489 11.991 26.1 12.0193 25.9681 12.0752C25.8396 12.1299 25.7166 12.2178 25.601 12.3375L25.2772 12.6727C24.8709 13.0937 24.3831 13.3808 23.8538 13.5234C23.3245 13.666 22.76 13.6626 22.2014 13.5035L21.7543 13.3758C21.5976 13.3311 21.4456 13.3181 21.3007 13.3358C21.1694 13.3522 21.0403 13.3939 20.9157 13.46L20.8784 13.4827C20.7372 13.5648 20.6228 13.6639 20.5366 13.7788C20.4507 13.8932 20.3874 14.0302 20.3479 14.1883L20.2342 14.6414C20.0926 15.2062 19.813 15.6999 19.4246 16.0914L19.4197 16.0964C19.0298 16.4876 18.5382 16.7691 17.9762 16.9117L17.5257 17.026C17.3687 17.0658 17.2322 17.1295 17.1185 17.2159C17.0045 17.3026 16.9056 17.4179 16.824 17.5595L16.8225 17.5586C16.7443 17.6953 16.6958 17.8382 16.6779 17.9843C16.6599 18.1303 16.6729 18.2829 16.7174 18.4401L16.8444 18.8894C17.0029 19.4511 17.006 20.0188 16.8642 20.551C16.7224 21.0836 16.4366 21.5745 16.0182 21.9828L15.6848 22.3084C15.5656 22.4246 15.4781 22.5486 15.4241 22.6778C15.3709 22.804 15.344 22.9537 15.344 23.1246C15.344 23.2955 15.3709 23.4453 15.4241 23.5721C15.4784 23.7013 15.5659 23.825 15.6848 23.9412L16.0182 24.2668C16.4369 24.6754 16.7224 25.166 16.8642 25.6982C17.006 26.2305 17.0026 26.7981 16.8444 27.3599L16.7174 27.8095C16.6729 27.967 16.6599 28.1199 16.6776 28.2656C16.6939 28.3977 16.7353 28.5275 16.8011 28.6528L16.8237 28.6904C16.9053 28.8323 17.0038 28.9473 17.1182 29.034C17.2319 29.1204 17.3681 29.1841 17.5254 29.2238L17.9759 29.3382C18.5373 29.4805 19.0285 29.7617 19.4178 30.1522L19.4228 30.1572C19.8118 30.5493 20.0917 31.0437 20.2335 31.6088L20.3472 32.0618C20.3868 32.2197 20.4501 32.357 20.536 32.4714C20.6225 32.5863 20.7369 32.6854 20.8777 32.7675L20.8768 32.769C21.0131 32.8476 21.1549 32.8964 21.3001 32.9144C21.4453 32.9325 21.597 32.9194 21.7534 32.8747L22.2002 32.747C22.7588 32.5876 23.3233 32.5845 23.8525 32.7271C24.3821 32.8697 24.8703 33.1571 25.2763 33.5778L25.6001 33.913C25.7157 34.033 25.8389 34.1209 25.9675 34.1753C26.0929 34.2287 26.2418 34.2558 26.4118 34.2558C26.5817 34.2558 26.7306 34.2287 26.8567 34.1753C26.9852 34.1206 27.1082 34.0327 27.2238 33.913L27.5476 33.5778C27.9535 33.1571 28.4417 32.8697 28.971 32.7271C29.5003 32.5845 30.0648 32.5876 30.6234 32.747L31.0705 32.8747C31.2271 32.9194 31.3791 32.9325 31.524 32.9147C31.6557 32.8983 31.7845 32.8566 31.909 32.7905L31.9464 32.7678C32.0876 32.6857 32.2019 32.5863 32.2881 32.4717C32.374 32.3573 32.4374 32.2203 32.4769 32.0622L32.5906 31.6091C32.7321 31.0446 33.0118 30.5506 33.4001 30.1591L33.4051 30.1541C33.795 29.7629 34.2863 29.4814 34.8486 29.3388L35.2991 29.2245C35.456 29.1847 35.5926 29.121 35.7063 29.0346C35.8206 28.9476 35.9192 28.8327 36.0008 28.691L36.0023 28.6919C36.0805 28.5549 36.129 28.4123 36.1469 28.2662C36.1648 28.1202 36.1518 27.9676 36.1074 27.8104L35.9804 27.3611C35.8219 26.7994 35.8188 26.2317 35.9606 25.6995C36.1024 25.1669 36.3882 24.676 36.8066 24.2677L37.14 23.9421C37.2592 23.8259 37.3467 23.7019 37.4007 23.5727C37.4539 23.4465 37.4807 23.2968 37.4807 23.1259C37.4807 22.955 37.4539 22.8052 37.4007 22.6785C37.3463 22.5492 37.2589 22.4255 37.14 22.3093L36.8066 21.9837C36.3879 21.5751 36.1024 21.0845 35.9606 20.5523C35.8188 20.02 35.8219 19.4524 35.9804 18.8906L36.1074 18.441C36.1518 18.2835 36.1648 18.1306 36.1472 17.9849C36.1308 17.8525 36.0894 17.723 36.0236 17.5978L36.0011 17.5602C35.9195 17.4182 35.8209 17.3032 35.7066 17.2165C35.5929 17.1301 35.4567 17.0664 35.2994 17.0267L34.8489 16.9123C34.2872 16.77 33.7962 16.4888 33.4069 16.0983L33.402 16.0933C33.013 15.7012 32.7331 15.2072 32.5912 14.6417L32.4775 14.1887C32.438 14.0308 32.3747 13.8935 32.2888 13.7791C32.2022 13.6642 32.0879 13.5651 31.947 13.483L31.948 13.4815C31.8117 13.4029 31.6699 13.3541 31.5247 13.3361C31.3794 13.3181 31.2277 13.3311 31.0714 13.3758L30.6246 13.5035C30.066 13.6629 29.5015 13.666 28.9722 13.5234C28.4427 13.3808 27.9545 13.0934 27.5485 12.6727V12.673Z" fill="#374148" stroke="#F1F1F1" stroke-width="0.6"/>
<path d="M29.4376 37.8858C29.1768 37.4039 29.3535 36.8002 29.8327 36.5377C30.312 36.2754 30.9123 36.4531 31.1734 36.935L33.2589 40.7667L33.8719 39.0699C34.0122 38.6803 34.2863 38.373 34.6271 38.1856C34.9651 37.9998 35.3689 37.934 35.7709 38.025L37.5246 38.4224L35.4493 34.6094C35.1885 34.1275 35.3652 33.5238 35.8444 33.2612C36.3237 32.999 36.924 33.1767 37.1851 33.6586L39.6207 38.1341C39.7774 38.4218 39.8435 38.734 39.8209 39.0401C39.7984 39.3517 39.6878 39.6541 39.4922 39.9151C39.2969 40.1754 39.0392 40.3646 38.7491 40.4722C38.4605 40.5787 38.1426 40.6014 37.8243 40.529L35.6291 40.0316L34.8613 42.1562C34.7504 42.4647 34.5591 42.7223 34.3122 42.9103L34.3104 42.9078C34.062 43.0967 33.7644 43.2129 33.4449 43.2381C33.1245 43.2632 32.8146 43.1943 32.5431 43.0467L32.539 43.0426C32.2681 42.8947 32.041 42.6698 31.8849 42.383L29.4372 37.8858H29.4376Z" fill="#374148" stroke="#F1F1F1" stroke-width="0.6"/>
</svg>
